<svg width="768" height="782" viewBox="0 0 768 782" fill="none" xmlns="http://www.w3.org/2000/svg">
<path fill-rule="evenodd" clip-rule="evenodd" d="M704.665 -275.164C749.11 -241.017 740.614 -171.119 770.378 -123.22C798.047 -78.6929 865.809 -60.5037 870.782 -7.83757C875.762 44.9046 830.407 88.8772 794.045 127.41C761.186 162.23 718.653 181.353 674.876 199.761C626.125 220.26 577.541 249.202 525.899 240.164C470.161 230.409 413.249 200.271 387.239 149.419C361.971 100.017 391.098 41.5561 395.754 -14.2799C400.048 -65.7703 392.738 -117.092 413.418 -164.508C438.703 -222.481 466.966 -289.273 525.369 -311.463C584.278 -333.844 655.015 -313.311 704.665 -275.164Z" stroke="#07B464"/>
<path fill-rule="evenodd" clip-rule="evenodd" d="M704.665 -259.702C749.11 -225.554 740.614 -155.656 770.378 -107.758C798.047 -63.2303 865.809 -45.0412 870.782 7.62496C875.762 60.3672 830.407 104.34 794.045 142.873C761.186 177.693 718.653 196.815 674.876 215.223C626.125 235.723 577.541 264.665 525.899 255.627C470.161 245.871 413.249 215.733 387.239 164.882C361.971 115.479 391.098 57.0186 395.754 1.18263C400.048 -50.3078 392.738 -101.629 413.418 -149.046C438.703 -207.019 466.966 -273.81 525.369 -296C584.278 -318.382 655.015 -297.848 704.665 -259.702Z" stroke="#07B464"/>
<path fill-rule="evenodd" clip-rule="evenodd" d="M704.665 -244.239C749.11 -210.091 740.614 -140.193 770.378 -92.295C798.047 -47.7678 865.809 -29.5787 870.782 23.0875C875.762 75.8297 830.407 119.802 794.045 158.335C761.186 193.155 718.653 212.278 674.876 230.686C626.125 251.185 577.541 280.127 525.899 271.089C470.161 261.334 413.249 231.196 387.239 180.344C361.971 130.942 391.098 72.4811 395.754 16.6452C400.048 -34.8453 392.738 -86.1665 413.418 -133.583C438.703 -191.556 466.966 -258.348 525.369 -280.538C584.278 -302.919 655.015 -282.386 704.665 -244.239Z" stroke="#07B464"/>
<path fill-rule="evenodd" clip-rule="evenodd" d="M503.856 769.521C417.813 744.647 360.282 634.926 288.473 558.947C214.805 481 74.7651 455.332 78.3811 319.336C82.5489 162.593 283.372 165.147 303.039 11.1308C328.049 -184.723 101.674 -397.107 188.945 -546.514C267.083 -680.283 400.88 -419.695 503.856 -332.664C555.194 -289.275 587.365 -215.292 637.081 -167.767C692.512 -114.778 761.012 -107.237 809.521 -40.4663C896.662 79.4806 1030.27 188.361 1025.26 366.542C1020.53 534.494 887.456 627.112 788.592 703.521C700.922 771.28 600.537 797.469 503.856 769.521Z" stroke="#07B464"/>
<path fill-rule="evenodd" clip-rule="evenodd" d="M442.006 769.521C355.963 744.647 298.432 634.926 226.623 558.947C152.955 481 12.9149 455.332 16.531 319.336C20.6987 162.593 221.522 165.147 241.189 11.1308C266.199 -184.723 39.8237 -397.107 127.095 -546.514C205.232 -680.283 339.029 -419.695 442.006 -332.664C493.344 -289.275 525.515 -215.292 575.231 -167.767C630.662 -114.778 699.162 -107.237 747.671 -40.4663C834.812 79.4806 968.418 188.361 963.405 366.542C958.681 534.494 825.606 627.112 726.742 703.521C639.072 771.28 538.686 797.469 442.006 769.521Z" stroke="#07B464"/>
<path fill-rule="evenodd" clip-rule="evenodd" d="M488.394 769.521C402.35 744.647 344.82 634.926 273.011 558.947C199.342 481 59.3026 455.332 62.9186 319.336C67.0863 162.593 267.91 165.147 287.577 11.1308C312.586 -184.723 86.2114 -397.107 173.483 -546.514C251.62 -680.283 385.417 -419.695 488.394 -332.664C539.731 -289.275 571.903 -215.292 621.618 -167.767C677.049 -114.778 745.55 -107.237 794.059 -40.4663C881.2 79.4806 1014.81 188.361 1009.79 366.542C1005.07 534.494 871.993 627.112 773.13 703.521C685.459 771.28 585.074 797.469 488.394 769.521Z" stroke="#07B464"/>
<path fill-rule="evenodd" clip-rule="evenodd" d="M426.543 769.521C340.5 744.647 282.97 634.926 211.16 558.947C137.492 481 -2.54759 455.332 1.06846 319.336C5.23618 162.593 206.06 165.147 225.727 11.1308C250.736 -184.723 24.3612 -397.107 111.633 -546.514C189.77 -680.283 323.567 -419.695 426.543 -332.664C477.881 -289.275 510.053 -215.292 559.768 -167.767C615.199 -114.778 683.7 -107.237 732.208 -40.4663C819.35 79.4806 952.955 188.361 947.943 366.542C943.218 534.494 810.143 627.112 711.28 703.521C623.609 771.28 523.224 797.469 426.543 769.521Z" stroke="#07B464"/>
<path fill-rule="evenodd" clip-rule="evenodd" d="M472.931 769.521C386.888 744.647 329.357 634.926 257.548 558.947C183.88 481 43.84 455.332 47.4561 319.336C51.6238 162.593 252.447 165.147 272.114 11.1308C297.124 -184.723 70.7488 -397.107 158.02 -546.514C236.157 -680.283 369.955 -419.695 472.931 -332.664C524.269 -289.275 556.44 -215.292 606.156 -167.767C661.587 -114.778 730.087 -107.237 778.596 -40.4663C865.737 79.4806 999.343 188.361 994.33 366.542C989.606 534.494 856.531 627.112 757.667 703.521C669.997 771.28 569.612 797.469 472.931 769.521Z" stroke="#07B464"/>
<path fill-rule="evenodd" clip-rule="evenodd" d="M457.469 769.521C371.425 744.647 313.895 634.926 242.086 558.947C168.417 481 28.3775 455.332 31.9936 319.336C36.1613 162.593 236.985 165.147 256.652 11.1308C281.661 -184.723 55.2863 -397.107 142.558 -546.514C220.695 -680.283 354.492 -419.695 457.469 -332.664C508.806 -289.275 540.978 -215.292 590.693 -167.767C646.124 -114.778 714.625 -107.237 763.134 -40.4663C850.275 79.4806 983.88 188.361 978.868 366.542C974.143 534.494 841.068 627.112 742.205 703.521C654.534 771.28 554.149 797.469 457.469 769.521Z" stroke="#07B464"/>
<path fill-rule="evenodd" clip-rule="evenodd" d="M503.856 769.521C417.813 744.647 360.283 634.926 288.473 558.947C214.805 481 74.7653 455.332 78.3814 319.336C82.5491 162.593 283.372 165.147 303.039 11.1308C328.049 -184.723 101.674 -397.107 188.946 -546.514C267.083 -680.283 400.88 -419.695 503.856 -332.664C555.194 -289.275 587.366 -215.292 637.081 -167.767C692.512 -114.778 761.013 -107.237 809.521 -40.4663C896.663 79.4806 1030.27 188.361 1025.26 366.542C1020.53 534.494 887.456 627.112 788.592 703.521C700.922 771.28 600.537 797.469 503.856 769.521Z" stroke="#07B464"/>
<path fill-rule="evenodd" clip-rule="evenodd" d="M442.006 769.521C355.963 744.647 298.432 634.926 226.623 558.947C152.955 481 12.9151 455.332 16.5312 319.336C20.6989 162.593 221.522 165.147 241.189 11.1308C266.199 -184.723 39.8239 -397.107 127.095 -546.514C205.233 -680.283 339.03 -419.695 442.006 -332.664C493.344 -289.275 525.515 -215.292 575.231 -167.767C630.662 -114.778 699.162 -107.237 747.671 -40.4663C834.812 79.4806 968.418 188.361 963.406 366.542C958.681 534.494 825.606 627.112 726.742 703.521C639.072 771.28 538.687 797.469 442.006 769.521Z" stroke="#07B464"/>
<path fill-rule="evenodd" clip-rule="evenodd" d="M488.394 769.521C402.35 744.647 344.82 634.926 273.011 558.947C199.342 481 59.3027 455.332 62.9187 319.336C67.0865 162.593 267.91 165.147 287.577 11.1308C312.586 -184.723 86.2115 -397.107 173.483 -546.514C251.62 -680.283 385.417 -419.695 488.394 -332.664C539.731 -289.275 571.903 -215.292 621.618 -167.767C677.049 -114.778 745.55 -107.237 794.059 -40.4663C881.2 79.4806 1014.81 188.361 1009.79 366.542C1005.07 534.494 871.993 627.112 773.13 703.521C685.459 771.28 585.074 797.469 488.394 769.521Z" stroke="#07B464"/>
<path fill-rule="evenodd" clip-rule="evenodd" d="M426.544 769.521C340.5 744.647 282.97 634.926 211.161 558.947C137.492 481 -2.54741 455.332 1.06865 319.336C5.23637 162.593 206.06 165.147 225.727 11.1308C250.736 -184.723 24.3614 -397.107 111.633 -546.514C189.77 -680.283 323.567 -419.695 426.544 -332.664C477.881 -289.275 510.053 -215.292 559.768 -167.767C615.199 -114.778 683.7 -107.237 732.209 -40.4663C819.35 79.4806 952.955 188.361 947.943 366.542C943.218 534.494 810.143 627.112 711.28 703.521C623.609 771.28 523.224 797.469 426.544 769.521Z" stroke="#07B464"/>
<path fill-rule="evenodd" clip-rule="evenodd" d="M472.931 769.521C386.888 744.647 329.357 634.926 257.548 558.947C183.88 481 43.8403 455.332 47.4563 319.336C51.6241 162.593 252.447 165.147 272.114 11.1308C297.124 -184.723 70.7491 -397.107 158.021 -546.514C236.158 -680.283 369.955 -419.695 472.931 -332.664C524.269 -289.275 556.441 -215.292 606.156 -167.767C661.587 -114.778 730.088 -107.237 778.596 -40.4663C865.738 79.4806 999.343 188.361 994.331 366.542C989.606 534.494 856.531 627.112 757.667 703.521C669.997 771.28 569.612 797.469 472.931 769.521Z" stroke="#07B464"/>
<path fill-rule="evenodd" clip-rule="evenodd" d="M457.469 769.521C371.425 744.647 313.895 634.926 242.086 558.947C168.417 481 28.3776 455.332 31.9937 319.336C36.1614 162.593 236.985 165.147 256.652 11.1308C281.661 -184.723 55.2864 -397.107 142.558 -546.514C220.695 -680.283 354.492 -419.695 457.469 -332.664C508.806 -289.275 540.978 -215.292 590.693 -167.767C646.124 -114.778 714.625 -107.237 763.134 -40.4663C850.275 79.4806 983.88 188.361 978.868 366.542C974.143 534.494 841.068 627.112 742.205 703.521C654.534 771.28 554.149 797.469 457.469 769.521Z" stroke="#07B464"/>
</svg>
