<svg width="105" height="296" viewBox="0 0 105 296" fill="none" xmlns="http://www.w3.org/2000/svg">
<path fill-rule="evenodd" clip-rule="evenodd" d="M289.791 -155.166C321.522 -130.787 315.456 -80.8848 336.705 -46.6889C356.459 -14.8998 404.836 -1.91414 408.386 35.6856C411.942 73.3395 379.562 104.733 353.602 132.242C330.143 157.101 299.778 170.753 268.524 183.895C233.719 198.53 199.034 219.193 162.165 212.74C122.373 205.776 81.7418 184.259 63.1729 147.955C45.1329 112.686 65.9277 70.9489 69.2519 31.0862C72.3174 -5.67411 67.0982 -42.3137 81.8626 -76.1656C99.9141 -117.554 120.092 -165.238 161.787 -181.08C203.844 -197.059 254.345 -182.399 289.791 -155.166Z" stroke="#07B464"/>
<path fill-rule="evenodd" clip-rule="evenodd" d="M289.791 -144.127C321.522 -119.748 315.456 -69.8458 336.705 -35.6499C356.459 -3.86076 404.836 9.12492 408.386 46.7246C411.942 84.3786 379.562 115.772 353.602 143.281C330.143 168.14 299.778 181.792 268.524 194.934C233.719 209.569 199.034 230.232 162.165 223.779C122.373 216.815 81.7418 195.298 63.1729 158.994C45.1329 123.725 65.9277 81.988 69.2519 42.1253C72.3174 5.36495 67.0982 -31.2746 81.8626 -65.1265C99.9141 -106.515 120.092 -154.199 161.787 -170.041C203.844 -186.02 254.345 -171.36 289.791 -144.127Z" stroke="#07B464"/>
<path fill-rule="evenodd" clip-rule="evenodd" d="M289.791 -133.087C321.522 -108.709 315.456 -58.8066 336.705 -24.6108C356.459 7.17836 404.836 20.164 408.386 57.7637C411.942 95.4177 379.562 126.811 353.602 154.321C330.143 179.179 299.778 192.831 268.524 205.973C233.719 220.608 199.034 241.271 162.165 234.818C122.373 227.854 81.7418 206.337 63.1729 170.033C45.1329 134.764 65.9277 93.0271 69.2519 53.1644C72.3174 16.4041 67.0982 -20.2355 81.8626 -54.0874C99.9141 -95.476 120.092 -143.16 161.787 -159.002C203.844 -174.981 254.345 -160.321 289.791 -133.087Z" stroke="#07B464"/>
</svg>
