<svg width="360" height="800" viewBox="0 0 360 800" fill="none" xmlns="http://www.w3.org/2000/svg">
<path fill-rule="evenodd" clip-rule="evenodd" d="M287.849 790.502C212.758 769.837 162.55 678.681 99.8815 615.557C35.5902 550.8 -86.624 529.475 -83.4683 416.49C-79.8311 286.268 95.4299 288.389 112.594 160.433C134.42 -2.28185 -63.1404 -178.729 13.0225 -302.856C81.2137 -413.992 197.98 -197.496 287.849 -125.19C332.652 -89.1434 360.728 -27.6785 404.116 11.8051C452.491 55.8281 512.272 62.0937 554.606 117.567C630.656 217.218 747.255 307.675 742.88 455.708C738.757 595.242 622.621 672.189 536.342 735.67C459.83 791.964 372.223 813.721 287.849 790.502Z" stroke="#07B464"/>
<path fill-rule="evenodd" clip-rule="evenodd" d="M233.872 790.502C158.78 769.837 108.573 678.681 45.9042 615.557C-18.3871 550.8 -140.601 529.475 -137.446 416.49C-133.808 286.268 41.4526 288.389 58.6163 160.433C80.4423 -2.28185 -117.118 -178.729 -40.9548 -302.856C27.2364 -413.992 144.003 -197.496 233.872 -125.19C278.675 -89.1434 306.751 -27.6785 350.138 11.8051C398.514 55.8281 458.295 62.0937 500.629 117.567C576.678 217.218 693.277 307.675 688.903 455.708C684.78 595.242 568.644 672.189 482.364 735.67C405.853 791.964 318.246 813.721 233.872 790.502Z" stroke="#07B464"/>
<path fill-rule="evenodd" clip-rule="evenodd" d="M274.355 790.502C199.264 769.837 149.056 678.681 86.3872 615.557C22.0959 550.8 -100.118 529.475 -96.9625 416.49C-93.3253 286.268 81.9357 288.389 99.0993 160.433C120.925 -2.28185 -76.6347 -178.729 -0.471783 -302.856C67.7194 -413.992 184.486 -197.496 274.355 -125.19C319.158 -89.1434 347.234 -27.6785 390.621 11.8051C438.997 55.8281 498.778 62.0937 541.112 117.567C617.161 217.218 733.76 307.675 729.386 455.708C725.263 595.242 609.127 672.189 522.847 735.67C446.336 791.964 358.729 813.721 274.355 790.502Z" stroke="#07B464"/>
<path fill-rule="evenodd" clip-rule="evenodd" d="M220.377 790.502C145.286 769.837 95.0784 678.681 32.4097 615.557C-31.8816 550.8 -154.096 529.475 -150.94 416.49C-147.303 286.268 27.9581 288.389 45.1218 160.433C66.9478 -2.28185 -130.612 -178.729 -54.4493 -302.856C13.7419 -413.992 130.508 -197.496 220.377 -125.19C265.18 -89.1434 293.257 -27.6785 336.644 11.8051C385.019 55.8281 444.8 62.0937 487.135 117.567C563.184 217.218 679.783 307.675 675.409 455.708C671.285 595.242 555.149 672.189 468.87 735.67C392.359 791.964 304.751 813.721 220.377 790.502Z" stroke="#07B464"/>
<path fill-rule="evenodd" clip-rule="evenodd" d="M260.86 790.502C185.769 769.837 135.562 678.681 72.8928 615.557C8.6015 550.8 -113.613 529.475 -110.457 416.49C-106.82 286.268 68.4412 288.389 85.6048 160.433C107.431 -2.28185 -90.1291 -178.729 -13.9662 -302.856C54.225 -413.992 170.991 -197.496 260.86 -125.19C305.663 -89.1434 333.74 -27.6785 377.127 11.8051C425.502 55.8281 485.284 62.0937 527.618 117.567C603.667 217.218 720.266 307.675 715.892 455.708C711.768 595.242 595.632 672.189 509.353 735.67C432.842 791.964 345.234 813.721 260.86 790.502Z" stroke="#07B464"/>
<path fill-rule="evenodd" clip-rule="evenodd" d="M247.366 790.502C172.275 769.837 122.067 678.681 59.3985 615.557C-4.89277 550.8 -127.107 529.475 -123.951 416.49C-120.314 286.268 54.947 288.389 72.1106 160.433C93.9367 -2.28185 -103.623 -178.729 -27.4605 -302.856C40.7307 -413.992 157.497 -197.496 247.366 -125.19C292.169 -89.1434 320.245 -27.6785 363.633 11.8051C412.008 55.8281 471.789 62.0937 514.123 117.567C590.173 217.218 706.772 307.675 702.397 455.708C698.274 595.242 582.138 672.189 495.859 735.67C419.347 791.964 331.74 813.721 247.366 790.502Z" stroke="#07B464"/>
</svg>
