<svg width="841" height="755" viewBox="0 0 841 755" fill="none" xmlns="http://www.w3.org/2000/svg">
<path fill-rule="evenodd" clip-rule="evenodd" d="M704.665 -302.164C749.11 -268.017 740.614 -198.119 770.378 -150.22C798.048 -105.693 865.809 -87.5037 870.782 -34.8376C875.762 17.9046 830.408 61.8772 794.045 100.41C761.186 135.23 718.653 154.353 674.876 172.761C626.125 193.26 577.541 222.202 525.899 213.164C470.161 203.409 413.249 173.271 387.239 122.419C361.971 73.0168 391.098 14.5561 395.754 -41.2799C400.048 -92.7703 392.738 -144.092 413.418 -191.508C438.703 -249.481 466.966 -316.273 525.369 -338.463C584.279 -360.844 655.015 -340.311 704.665 -302.164Z" stroke="#07B464"/>
<path fill-rule="evenodd" clip-rule="evenodd" d="M704.665 -286.702C749.11 -252.554 740.614 -182.656 770.378 -134.758C798.048 -90.2303 865.809 -72.0412 870.782 -19.375C875.762 33.3672 830.408 77.3398 794.045 115.873C761.186 150.693 718.653 169.815 674.876 188.223C626.125 208.723 577.541 237.665 525.899 228.627C470.161 218.871 413.249 188.733 387.239 137.882C361.971 88.4793 391.098 30.0186 395.754 -25.8174C400.048 -77.3078 392.738 -128.629 413.418 -176.046C438.703 -234.019 466.966 -300.81 525.369 -323C584.279 -345.382 655.015 -324.848 704.665 -286.702Z" stroke="#07B464"/>
<path fill-rule="evenodd" clip-rule="evenodd" d="M704.665 -271.239C749.11 -237.091 740.614 -167.193 770.378 -119.295C798.048 -74.7678 865.809 -56.5787 870.782 -3.91252C875.762 48.8297 830.408 92.8023 794.045 131.335C761.186 166.155 718.653 185.278 674.876 203.686C626.125 224.185 577.541 253.127 525.899 244.089C470.161 234.334 413.249 204.196 387.239 153.344C361.971 103.942 391.098 45.4811 395.754 -10.3548C400.048 -61.8453 392.738 -113.167 413.418 -160.583C438.703 -218.556 466.966 -285.348 525.369 -307.538C584.279 -329.919 655.015 -309.386 704.665 -271.239Z" stroke="#07B464"/>
<path fill-rule="evenodd" clip-rule="evenodd" d="M503.856 742.521C417.813 717.647 360.282 607.926 288.473 531.947C214.805 454 74.7651 428.332 78.3811 292.336C82.5489 135.593 283.372 138.147 303.039 -15.8692C328.049 -211.723 101.674 -424.107 188.945 -573.514C267.083 -707.283 400.88 -446.695 503.856 -359.664C555.194 -316.275 587.365 -242.292 637.081 -194.767C692.512 -141.778 761.012 -134.237 809.521 -67.4663C896.662 52.4806 1030.27 161.361 1025.26 339.542C1020.53 507.494 887.456 600.112 788.592 676.521C700.922 744.28 600.537 770.469 503.856 742.521Z" stroke="#07B464"/>
<path fill-rule="evenodd" clip-rule="evenodd" d="M442.006 742.521C355.963 717.647 298.432 607.926 226.623 531.947C152.955 454 12.9149 428.332 16.531 292.336C20.6987 135.593 221.522 138.147 241.189 -15.8692C266.199 -211.723 39.8237 -424.107 127.095 -573.514C205.232 -707.283 339.029 -446.695 442.006 -359.664C493.344 -316.275 525.515 -242.292 575.231 -194.767C630.662 -141.778 699.162 -134.237 747.671 -67.4663C834.812 52.4806 968.418 161.361 963.405 339.542C958.681 507.494 825.606 600.112 726.742 676.521C639.072 744.28 538.686 770.469 442.006 742.521Z" stroke="#07B464"/>
<path fill-rule="evenodd" clip-rule="evenodd" d="M488.394 742.521C402.35 717.647 344.82 607.926 273.011 531.947C199.342 454 59.3026 428.332 62.9186 292.336C67.0863 135.593 267.91 138.147 287.577 -15.8692C312.586 -211.723 86.2114 -424.107 173.483 -573.514C251.62 -707.283 385.417 -446.695 488.394 -359.664C539.731 -316.275 571.903 -242.292 621.618 -194.767C677.049 -141.778 745.55 -134.237 794.059 -67.4663C881.2 52.4806 1014.81 161.361 1009.79 339.542C1005.07 507.494 871.993 600.112 773.13 676.521C685.459 744.28 585.074 770.469 488.394 742.521Z" stroke="#07B464"/>
<path fill-rule="evenodd" clip-rule="evenodd" d="M426.543 742.521C340.5 717.647 282.97 607.926 211.16 531.947C137.492 454 -2.54759 428.332 1.06846 292.336C5.23618 135.593 206.06 138.147 225.727 -15.8692C250.736 -211.723 24.3612 -424.107 111.633 -573.514C189.77 -707.283 323.567 -446.695 426.543 -359.664C477.881 -316.275 510.053 -242.292 559.768 -194.767C615.199 -141.778 683.7 -134.237 732.208 -67.4663C819.35 52.4806 952.955 161.361 947.943 339.542C943.218 507.494 810.143 600.112 711.28 676.521C623.609 744.28 523.224 770.469 426.543 742.521Z" stroke="#07B464"/>
<path fill-rule="evenodd" clip-rule="evenodd" d="M472.931 742.521C386.888 717.647 329.357 607.926 257.548 531.947C183.88 454 43.84 428.332 47.4561 292.336C51.6238 135.593 252.447 138.147 272.114 -15.8692C297.124 -211.723 70.7488 -424.107 158.02 -573.514C236.157 -707.283 369.955 -446.695 472.931 -359.664C524.269 -316.275 556.44 -242.292 606.156 -194.767C661.587 -141.778 730.087 -134.237 778.596 -67.4663C865.737 52.4806 999.343 161.361 994.33 339.542C989.606 507.494 856.531 600.112 757.667 676.521C669.997 744.28 569.612 770.469 472.931 742.521Z" stroke="#07B464"/>
<path fill-rule="evenodd" clip-rule="evenodd" d="M457.469 742.521C371.425 717.647 313.895 607.926 242.086 531.947C168.417 454 28.3775 428.332 31.9936 292.336C36.1613 135.593 236.985 138.147 256.652 -15.8692C281.661 -211.723 55.2863 -424.107 142.558 -573.514C220.695 -707.283 354.492 -446.695 457.469 -359.664C508.806 -316.275 540.978 -242.292 590.693 -194.767C646.124 -141.778 714.625 -134.237 763.134 -67.4663C850.275 52.4806 983.88 161.361 978.868 339.542C974.143 507.494 841.068 600.112 742.205 676.521C654.534 744.28 554.149 770.469 457.469 742.521Z" stroke="#07B464"/>
<path fill-rule="evenodd" clip-rule="evenodd" d="M503.856 742.521C417.813 717.647 360.282 607.926 288.473 531.947C214.805 454 74.7653 428.332 78.3813 292.336C82.549 135.593 283.372 138.147 303.039 -15.8692C328.049 -211.723 101.674 -424.107 188.946 -573.514C267.083 -707.283 400.88 -446.695 503.856 -359.664C555.194 -316.275 587.366 -242.292 637.081 -194.767C692.512 -141.778 761.013 -134.237 809.521 -67.4663C896.663 52.4806 1030.27 161.361 1025.26 339.542C1020.53 507.494 887.456 600.112 788.592 676.521C700.922 744.28 600.537 770.469 503.856 742.521Z" stroke="#07B464"/>
<path fill-rule="evenodd" clip-rule="evenodd" d="M442.006 742.521C355.963 717.647 298.432 607.926 226.623 531.947C152.955 454 12.9151 428.332 16.5312 292.336C20.6989 135.593 221.522 138.147 241.189 -15.8692C266.199 -211.723 39.8239 -424.107 127.095 -573.514C205.233 -707.283 339.03 -446.695 442.006 -359.664C493.344 -316.275 525.515 -242.292 575.231 -194.767C630.662 -141.778 699.162 -134.237 747.671 -67.4663C834.812 52.4806 968.418 161.361 963.406 339.542C958.681 507.494 825.606 600.112 726.742 676.521C639.072 744.28 538.687 770.469 442.006 742.521Z" stroke="#07B464"/>
<path fill-rule="evenodd" clip-rule="evenodd" d="M488.394 742.521C402.35 717.647 344.82 607.926 273.011 531.947C199.342 454 59.3028 428.332 62.9188 292.336C67.0865 135.593 267.91 138.147 287.577 -15.8692C312.586 -211.723 86.2115 -424.107 173.483 -573.514C251.62 -707.283 385.417 -446.695 488.394 -359.664C539.731 -316.275 571.903 -242.292 621.618 -194.767C677.049 -141.778 745.55 -134.237 794.059 -67.4663C881.2 52.4806 1014.81 161.361 1009.79 339.542C1005.07 507.494 871.993 600.112 773.13 676.521C685.459 744.28 585.074 770.469 488.394 742.521Z" stroke="#07B464"/>
<path fill-rule="evenodd" clip-rule="evenodd" d="M426.544 742.521C340.5 717.647 282.97 607.926 211.161 531.947C137.492 454 -2.54741 428.332 1.06865 292.336C5.23637 135.593 206.06 138.147 225.727 -15.8692C250.736 -211.723 24.3614 -424.107 111.633 -573.514C189.77 -707.283 323.567 -446.695 426.544 -359.664C477.881 -316.275 510.053 -242.292 559.768 -194.767C615.199 -141.778 683.7 -134.237 732.209 -67.4663C819.35 52.4806 952.955 161.361 947.943 339.542C943.218 507.494 810.143 600.112 711.28 676.521C623.609 744.28 523.224 770.469 426.544 742.521Z" stroke="#07B464"/>
<path fill-rule="evenodd" clip-rule="evenodd" d="M472.931 742.521C386.888 717.647 329.357 607.926 257.548 531.947C183.88 454 43.8402 428.332 47.4563 292.336C51.624 135.593 252.447 138.147 272.114 -15.8692C297.124 -211.723 70.749 -424.107 158.021 -573.514C236.158 -707.283 369.955 -446.695 472.931 -359.664C524.269 -316.275 556.44 -242.292 606.156 -194.767C661.587 -141.778 730.088 -134.237 778.596 -67.4663C865.737 52.4806 999.343 161.361 994.331 339.542C989.606 507.494 856.531 600.112 757.667 676.521C669.997 744.28 569.612 770.469 472.931 742.521Z" stroke="#07B464"/>
<path fill-rule="evenodd" clip-rule="evenodd" d="M457.469 742.521C371.425 717.647 313.895 607.926 242.086 531.947C168.417 454 28.3777 428.332 31.9938 292.336C36.1615 135.593 236.985 138.147 256.652 -15.8692C281.661 -211.723 55.2865 -424.107 142.558 -573.514C220.695 -707.283 354.492 -446.695 457.469 -359.664C508.806 -316.275 540.978 -242.292 590.693 -194.767C646.124 -141.778 714.625 -134.237 763.134 -67.4663C850.275 52.4806 983.881 161.361 978.868 339.542C974.144 507.494 841.068 600.112 742.205 676.521C654.534 744.28 554.149 770.469 457.469 742.521Z" stroke="#07B464"/>
</svg>
