<svg width="421" height="560" viewBox="0 0 421 560" fill="none" xmlns="http://www.w3.org/2000/svg">
<path fill-rule="evenodd" clip-rule="evenodd" d="M288.521 127.192C306.681 141.145 303.21 169.705 315.371 189.277C326.677 207.471 354.365 214.903 356.397 236.422C358.432 257.973 339.899 275.94 325.041 291.685C311.615 305.913 294.236 313.726 276.348 321.248C256.429 329.624 236.577 341.45 215.476 337.757C192.701 333.771 169.447 321.456 158.819 300.678C148.494 280.492 160.396 256.605 162.298 233.79C164.053 212.751 161.066 191.781 169.516 172.406C179.847 148.718 191.396 121.427 215.26 112.36C239.33 103.215 268.233 111.605 288.521 127.192Z" stroke="#07B464"/>
<path fill-rule="evenodd" clip-rule="evenodd" d="M288.521 133.51C306.681 147.463 303.21 176.023 315.371 195.595C326.677 213.789 354.365 221.221 356.397 242.74C358.432 264.291 339.899 282.259 325.041 298.003C311.615 312.231 294.236 320.044 276.348 327.566C256.429 335.942 236.577 347.768 215.476 344.075C192.701 340.089 169.447 327.774 158.819 306.996C148.494 286.81 160.396 262.923 162.298 240.108C164.053 219.069 161.066 198.099 169.516 178.724C179.847 155.036 191.396 127.745 215.26 118.678C239.33 109.533 268.233 117.923 288.521 133.51Z" stroke="#07B464"/>
<path fill-rule="evenodd" clip-rule="evenodd" d="M288.521 139.828C306.681 153.781 303.21 182.341 315.371 201.913C326.677 220.107 354.365 227.539 356.397 249.059C358.432 270.609 339.899 288.577 325.041 304.321C311.615 318.549 294.236 326.362 276.348 333.884C256.429 342.26 236.577 354.086 215.476 350.393C192.701 346.407 169.447 334.092 158.819 313.314C148.494 293.128 160.396 269.241 162.298 246.426C164.053 225.387 161.066 204.417 169.516 185.042C179.847 161.354 191.396 134.063 215.26 124.996C239.33 115.851 268.233 124.241 288.521 139.828Z" stroke="#07B464"/>
<path fill-rule="evenodd" clip-rule="evenodd" d="M206.469 554.054C171.311 543.891 147.804 499.058 118.463 468.013C88.3615 436.163 31.1407 425.675 32.6183 370.107C34.3212 306.061 116.379 307.105 124.415 244.173C134.633 164.146 42.1358 77.3654 77.7953 16.317C109.722 -38.3417 164.393 68.1355 206.469 103.697C227.446 121.426 240.591 151.656 260.905 171.074C283.555 192.726 311.544 195.807 331.365 223.09C366.971 272.101 421.563 316.59 419.515 389.395C417.585 458.021 363.21 495.865 322.814 527.087C286.991 554.773 245.973 565.474 206.469 554.054Z" stroke="#07B464"/>
<path fill-rule="evenodd" clip-rule="evenodd" d="M181.197 554.054C146.039 543.891 122.532 499.058 93.1905 468.013C63.0893 436.163 5.86852 425.675 7.34605 370.107C9.049 306.061 91.1063 307.105 99.1423 244.173C109.361 164.146 16.8636 77.3654 52.5231 16.317C84.4502 -38.3417 139.12 68.1355 181.197 103.697C202.174 121.426 215.319 151.656 235.633 171.074C258.282 192.726 286.272 195.807 306.093 223.09C341.699 272.101 396.291 316.59 394.243 389.395C392.312 458.021 337.937 495.865 297.541 527.087C261.719 554.773 220.701 565.474 181.197 554.054Z" stroke="#07B464"/>
<path fill-rule="evenodd" clip-rule="evenodd" d="M200.151 554.054C164.993 543.891 141.486 499.058 112.145 468.013C82.0435 436.163 24.8227 425.675 26.3003 370.107C28.0032 306.061 110.061 307.105 118.097 244.173C128.316 164.146 35.8178 77.3654 71.4773 16.317C103.404 -38.3417 158.075 68.1355 200.151 103.697C221.128 121.426 234.273 151.656 254.587 171.074C277.237 192.726 305.226 195.807 325.047 223.09C360.653 272.101 415.245 316.59 413.197 389.395C411.267 458.021 356.892 495.865 316.496 527.087C280.673 554.773 239.655 565.474 200.151 554.054Z" stroke="#07B464"/>
<path fill-rule="evenodd" clip-rule="evenodd" d="M174.879 554.054C139.721 543.891 116.214 499.058 86.8725 468.013C56.7712 436.163 -0.449537 425.675 1.028 370.107C2.73094 306.061 84.7882 307.105 92.8243 244.173C103.043 164.146 10.5455 77.3654 46.205 16.317C78.1322 -38.3417 132.802 68.1355 174.879 103.697C195.856 121.426 209.001 151.656 229.315 171.074C251.964 192.726 279.954 195.807 299.775 223.09C335.381 272.101 389.973 316.59 387.925 389.395C385.994 458.021 331.619 495.865 291.223 527.087C255.401 554.773 214.383 565.474 174.879 554.054Z" stroke="#07B464"/>
<path fill-rule="evenodd" clip-rule="evenodd" d="M193.833 554.054C158.675 543.891 135.168 499.058 105.827 468.013C75.7254 436.163 18.5046 425.675 19.9822 370.107C21.6851 306.061 103.742 307.105 111.778 244.173C121.997 164.146 29.4997 77.3654 65.1592 16.317C97.0863 -38.3417 151.756 68.1355 193.833 103.697C214.81 121.426 227.955 151.656 248.269 171.074C270.919 192.726 298.908 195.807 318.729 223.09C354.335 272.101 408.927 316.59 406.879 389.395C404.949 458.021 350.573 495.865 310.177 527.087C274.355 554.773 233.337 565.474 193.833 554.054Z" stroke="#07B464"/>
<path fill-rule="evenodd" clip-rule="evenodd" d="M187.515 554.054C152.357 543.891 128.85 499.058 99.5086 468.013C69.4074 436.163 12.1866 425.675 13.6642 370.107C15.3671 306.061 97.4244 307.105 105.46 244.173C115.679 164.146 23.1817 77.3654 58.8412 16.317C90.7684 -38.3417 145.438 68.1355 187.515 103.697C208.492 121.426 221.637 151.656 241.951 171.074C264.601 192.726 292.59 195.807 312.411 223.09C348.017 272.101 402.609 316.59 400.561 389.395C398.631 458.021 344.255 495.865 303.859 527.087C268.037 554.773 227.019 565.474 187.515 554.054Z" stroke="#07B464"/>
<path fill-rule="evenodd" clip-rule="evenodd" d="M206.469 554.054C171.312 543.891 147.804 499.058 118.463 468.013C88.3616 436.163 31.1408 425.675 32.6183 370.107C34.3213 306.061 116.379 307.105 124.415 244.173C134.634 164.146 42.1358 77.3654 77.7954 16.317C109.723 -38.3417 164.393 68.1355 206.469 103.697C227.446 121.426 240.591 151.656 260.905 171.074C283.555 192.726 311.544 195.807 331.365 223.09C366.972 272.101 421.563 316.59 419.515 389.395C417.585 458.021 363.21 495.865 322.814 527.087C286.991 554.773 245.973 565.474 206.469 554.054Z" stroke="#07B464"/>
<path fill-rule="evenodd" clip-rule="evenodd" d="M181.197 554.054C146.039 543.891 122.532 499.058 93.1905 468.013C63.0893 436.163 5.86852 425.675 7.34605 370.107C9.049 306.061 91.1063 307.105 99.1423 244.173C109.361 164.146 16.8636 77.3654 52.5231 16.317C84.4502 -38.3417 139.12 68.1355 181.197 103.697C202.174 121.426 215.319 151.656 235.633 171.074C258.282 192.726 286.272 195.807 306.093 223.09C341.699 272.101 396.291 316.59 394.243 389.395C392.312 458.021 337.937 495.865 297.541 527.087C261.719 554.773 220.701 565.474 181.197 554.054Z" stroke="#07B464"/>
<path fill-rule="evenodd" clip-rule="evenodd" d="M200.151 554.054C164.993 543.891 141.486 499.058 112.145 468.013C82.0435 436.163 24.8227 425.675 26.3003 370.107C28.0032 306.061 110.061 307.105 118.097 244.173C128.316 164.146 35.8178 77.3654 71.4773 16.317C103.404 -38.3417 158.075 68.1355 200.151 103.697C221.128 121.426 234.273 151.656 254.587 171.074C277.237 192.726 305.226 195.807 325.047 223.09C360.653 272.101 415.245 316.59 413.197 389.395C411.267 458.021 356.892 495.865 316.496 527.087C280.673 554.773 239.655 565.474 200.151 554.054Z" stroke="#07B464"/>
<path fill-rule="evenodd" clip-rule="evenodd" d="M174.879 554.054C139.721 543.891 116.214 499.058 86.8725 468.013C56.7713 436.163 -0.449476 425.675 1.02806 370.107C2.73101 306.061 84.7883 307.105 92.8243 244.173C103.043 164.146 10.5456 77.3654 46.2051 16.317C78.1322 -38.3417 132.802 68.1355 174.879 103.697C195.856 121.426 209.001 151.656 229.315 171.074C251.964 192.726 279.954 195.807 299.775 223.09C335.381 272.101 389.973 316.59 387.925 389.395C385.994 458.021 331.619 495.865 291.223 527.087C255.401 554.773 214.383 565.474 174.879 554.054Z" stroke="#07B464"/>
<path fill-rule="evenodd" clip-rule="evenodd" d="M193.833 554.054C158.675 543.891 135.168 499.058 105.827 468.013C75.7255 436.163 18.5047 425.675 19.9822 370.107C21.6852 306.061 103.742 307.105 111.778 244.173C121.997 164.146 29.4997 77.3654 65.1592 16.317C97.0864 -38.3417 151.756 68.1355 193.833 103.697C214.81 121.426 227.955 151.656 248.269 171.074C270.919 192.726 298.908 195.807 318.729 223.09C354.335 272.101 408.927 316.59 406.879 389.395C404.949 458.021 350.574 495.865 310.177 527.087C274.355 554.773 233.337 565.474 193.833 554.054Z" stroke="#07B464"/>
<path fill-rule="evenodd" clip-rule="evenodd" d="M187.515 554.054C152.357 543.891 128.85 499.058 99.5086 468.013C69.4074 436.163 12.1866 425.675 13.6642 370.107C15.3671 306.061 97.4244 307.105 105.46 244.173C115.679 164.146 23.1817 77.3654 58.8412 16.317C90.7684 -38.3417 145.438 68.1355 187.515 103.697C208.492 121.426 221.637 151.656 241.951 171.074C264.601 192.726 292.59 195.807 312.411 223.09C348.017 272.101 402.609 316.59 400.561 389.395C398.631 458.021 344.255 495.865 303.859 527.087C268.037 554.773 227.019 565.474 187.515 554.054Z" stroke="#07B464"/>
</svg>
