<svg width="677" height="615" viewBox="0 0 677 615" fill="none" xmlns="http://www.w3.org/2000/svg">
<path d="M154.64 497.96C154.64 497.96 9.64001 398.36 66.4 222.8C123.16 47.24 229.6 78.96 323.96 104.88C418.32 130.8 493.4 7.23999 587.6 136.24C681.8 265.28 642.64 485.24 492.76 508.32C342.88 531.4 154.64 497.96 154.64 497.96Z" fill="#EBFCF4"/>
<path d="M542.72 284.24C534.56 292.92 526.36 301.6 518.6 310.64C510.84 319.64 503.48 329 497 338.96C490.48 349 484.84 359.64 480.72 370.92C476.48 382.48 473.76 394.64 472.6 406.92C471.44 419.24 471.88 431.72 473.92 443.92C474.16 445.4 474.44 446.88 474.76 448.36C474.84 448.84 474.08 449.04 474 448.56C471.56 436.4 470.72 423.92 471.48 411.56C472.24 399.2 474.56 386.88 478.44 375.12C482.2 363.68 487.48 352.84 493.8 342.6C500.04 332.48 507.24 322.96 514.88 313.88C522.64 304.64 530.84 295.76 539.12 286.96C540.16 285.88 541.16 284.76 542.2 283.68C542.56 283.28 543.08 283.88 542.72 284.24Z" fill="#75CCA4"/>
<path d="M541.52 284.52C544.44 281.2 545.4 276.68 547.28 272.68C548.68 269.6 550.68 266.76 553.04 264.36C554 263.4 555 262.52 556.16 261.84C557.08 261.32 558.16 260.92 559.12 261.32C560.08 261.72 560.6 262.76 560.96 263.76C561.36 264.88 561.68 266.08 561.8 267.28C562.04 270.76 560.28 274.12 557.8 276.56C555.32 279 552.2 280.64 549.04 282.16C546.52 283.36 543.92 284.52 541.12 284.88" fill="#75CCA4"/>
<path d="M526.92 300.88C528.56 298.88 530.84 297.6 533.2 296.52C539.2 293.8 545.96 292.4 552.4 293.68C553.52 293.92 554.68 294.24 555.6 294.88C556.52 295.56 557.24 296.64 557.2 297.76C557.16 298.88 556.4 299.88 555.56 300.6C553.76 302.12 551.44 302.92 549.08 303.16C546.72 303.44 544.36 303.2 542 303C536.72 302.52 531.4 302.04 526.12 301.6" fill="#75CCA4"/>
<path d="M525.88 301.76C530.08 294.6 532.44 286.44 533.28 278.2C533.4 277.16 533.48 276.12 533.28 275.08C533.08 274.04 532.6 273.04 531.8 272.4C530.6 271.48 528.96 271.56 527.48 271.76C526.6 271.88 525.68 272.04 525 272.6C524.16 273.32 523.88 274.48 523.72 275.6C522.96 280.8 523.52 286.12 524.12 291.36C524.56 295.08 525 298.76 525.52 302.48" fill="#75CCA4"/>
<path d="M507.24 324.04C509.96 321.44 512.96 319.08 516.2 317.04C518.56 315.52 521.08 314.2 523.8 313.52C526.48 312.84 529.32 312.84 532.08 313.08C533.28 313.2 534.52 313.36 535.64 313.84C536.76 314.32 537.76 315.16 538.16 316.32C538.84 318.2 537.76 320.32 536.28 321.72C535.44 322.52 534.44 323.2 533.36 323.68C530.12 325.16 526.4 325.04 522.84 324.88C519.76 324.76 516.68 324.6 513.6 324.48C511.44 324.4 509.24 324.28 507.12 324.8" fill="#75CCA4"/>
<path d="M506.76 324.68C510.96 315.88 515.24 306.84 515.8 297.12C515.88 295.76 515.88 294.36 515.48 293.04C515.08 291.76 514.08 290.52 512.76 290.44C511.4 290.32 510.2 291.44 509.44 292.6C506.84 296.56 506.76 301.56 506.56 306.28C506.32 312.64 505.68 319 505.96 325.4" fill="#75CCA4"/>
<path d="M491.2 347.92C496 342.24 502.56 338.28 509.32 335.2C510.8 334.52 512.32 333.88 513.92 333.56C515.52 333.24 517.24 333.32 518.72 334C519.24 334.24 519.76 334.6 520.12 335.08C520.48 335.6 520.64 336.24 520.68 336.88C520.84 339.84 518.76 342.52 516.28 344.16C512.56 346.64 508 347.32 503.52 347.68C499.08 348 494.56 348.04 490.28 349.32" fill="#75CCA4"/>
<path d="M490.2 349.36C492.04 343.24 493.2 336.92 493.68 330.56C493.88 327.84 493.96 325.08 493.4 322.4C493.12 321.08 492.44 319.56 491.12 319.32C489.84 319.08 488.68 320.2 488.04 321.32C486.64 323.72 486.32 326.56 486.24 329.36C486.08 336.12 487.4 342.96 490.08 349.16" fill="#75CCA4"/>
<path d="M477.36 379.36C478.36 369.92 480.08 360.48 479.16 351.04C479.08 350.12 478.96 349.24 478.56 348.4C478.16 347.56 477.4 346.92 476.52 346.8C475.48 346.68 474.52 347.36 473.88 348.16C472.64 349.68 472.12 351.72 471.88 353.68C471.24 358.32 471.64 363 472.36 367.64C473.08 372.08 474.16 376.64 476.96 380.16" fill="#75CCA4"/>
<path d="M475.36 387.16C478.64 380 484 374 489.88 368.8C492.44 366.56 495.12 364.4 498.2 363C499.36 362.48 500.72 362.08 501.84 362.64C503.16 363.32 503.56 365 503.48 366.48C503.28 369.96 501.24 373.12 498.8 375.6C496 378.4 492.56 380.6 488.84 381.92C484.76 383.4 480.4 383.84 476.2 384.96" fill="#75CCA4"/>
<path d="M527.72 387.6C519.56 396.28 511.36 404.96 503.6 414C495.84 423 488.48 432.36 482 442.32C475.48 452.36 469.84 463 465.72 474.28C461.48 485.84 458.76 498 457.6 510.28C456.44 522.6 456.88 535.08 458.92 547.28C459.16 548.76 459.44 550.24 459.76 551.72C459.84 552.2 459.08 552.4 459 551.92C456.56 539.76 455.72 527.28 456.48 514.92C457.24 502.56 459.56 490.24 463.44 478.48C467.2 467.04 472.48 456.2 478.8 445.96C485.04 435.84 492.24 426.32 499.88 417.24C507.64 408 515.84 399.12 524.12 390.32C525.16 389.24 526.16 388.12 527.2 387.04C527.52 386.68 528.04 387.24 527.72 387.6Z" fill="#75CCA4"/>
<path d="M526.48 387.88C529.4 384.56 530.36 380.04 532.24 376.04C533.64 372.96 535.64 370.12 538 367.72C538.96 366.76 539.96 365.88 541.12 365.2C542.04 364.68 543.12 364.28 544.08 364.68C545.04 365.08 545.56 366.12 545.92 367.12C546.32 368.24 546.64 369.44 546.76 370.64C547 374.12 545.24 377.48 542.76 379.92C540.28 382.36 537.16 384 534 385.52C531.48 386.72 528.88 387.88 526.08 388.24" fill="#75CCA4"/>
<path d="M511.88 404.28C513.52 402.28 515.8 401 518.16 399.92C524.16 397.2 530.92 395.8 537.36 397.08C538.48 397.32 539.64 397.64 540.56 398.28C541.48 398.96 542.2 400.04 542.16 401.16C542.12 402.28 541.36 403.28 540.52 404C538.72 405.52 536.4 406.32 534.04 406.56C531.68 406.84 529.32 406.6 526.96 406.4C521.68 405.92 516.36 405.44 511.08 405" fill="#75CCA4"/>
<path d="M510.84 405.12C515.04 397.96 517.4 389.8 518.24 381.56C518.36 380.52 518.44 379.48 518.24 378.44C518.04 377.4 517.56 376.4 516.76 375.76C515.56 374.84 513.92 374.92 512.44 375.12C511.56 375.24 510.64 375.4 509.96 375.96C509.12 376.68 508.84 377.84 508.68 378.96C507.92 384.16 508.48 389.48 509.08 394.72C509.52 398.44 509.96 402.12 510.48 405.84" fill="#75CCA4"/>
<path d="M492.2 427.44C494.92 424.84 497.92 422.48 501.16 420.44C503.52 418.92 506.04 417.6 508.76 416.92C511.44 416.24 514.28 416.24 517.04 416.48C518.24 416.6 519.48 416.76 520.6 417.24C521.72 417.72 522.72 418.56 523.12 419.72C523.8 421.6 522.72 423.72 521.24 425.12C520.4 425.92 519.4 426.6 518.32 427.08C515.08 428.56 511.36 428.44 507.8 428.28C504.72 428.16 501.64 428 498.56 427.88C496.4 427.8 494.2 427.68 492.08 428.2" fill="#75CCA4"/>
<path d="M491.72 428.04C495.92 419.24 500.2 410.2 500.76 400.48C500.84 399.12 500.84 397.72 500.44 396.4C500.04 395.12 499.04 393.88 497.72 393.8C496.36 393.68 495.16 394.8 494.4 395.96C491.8 399.92 491.72 404.92 491.52 409.64C491.28 416 490.64 422.36 490.92 428.76" fill="#75CCA4"/>
<path d="M476.2 451.32C481 445.64 487.56 441.68 494.32 438.6C495.8 437.92 497.32 437.28 498.92 436.96C500.52 436.64 502.24 436.72 503.72 437.4C504.24 437.64 504.76 438 505.12 438.48C505.48 439 505.64 439.64 505.68 440.28C505.84 443.24 503.76 445.92 501.28 447.56C497.56 450.04 493 450.72 488.52 451.08C484.04 451.44 479.56 451.44 475.28 452.72" fill="#75CCA4"/>
<path d="M475.16 452.76C477 446.64 478.16 440.32 478.64 433.96C478.84 431.24 478.92 428.48 478.36 425.8C478.08 424.48 477.4 422.96 476.08 422.72C474.8 422.48 473.64 423.6 473 424.72C471.6 427.12 471.28 429.96 471.2 432.76C471.04 439.52 472.36 446.36 475.04 452.56" fill="#75CCA4"/>
<path d="M462.36 482.76C463.36 473.32 465.08 463.88 464.16 454.44C464.08 453.52 463.96 452.64 463.56 451.8C463.16 450.96 462.4 450.32 461.52 450.2C460.48 450.08 459.52 450.76 458.88 451.56C457.64 453.08 457.12 455.12 456.88 457.08C456.24 461.72 456.64 466.4 457.36 471.04C458.08 475.48 459.16 480.04 461.96 483.56" fill="#75CCA4"/>
<path d="M460.32 490.52C463.6 483.36 468.96 477.36 474.84 472.16C477.4 469.92 480.08 467.76 483.16 466.36C484.32 465.84 485.68 465.44 486.8 466C488.12 466.68 488.52 468.36 488.44 469.84C488.24 473.32 486.2 476.48 483.76 478.96C480.96 481.76 477.52 483.96 473.8 485.28C469.72 486.76 465.36 487.2 461.16 488.32" fill="#75CCA4"/>
<path d="M144.72 252.24C154.08 262.16 163.4 272.08 172.28 282.44C181.12 292.72 189.56 303.44 196.96 314.8C204.44 326.28 210.84 338.44 215.56 351.32C220.4 364.56 223.52 378.4 224.84 392.44C226.16 406.52 225.68 420.8 223.32 434.72C223.04 436.4 222.72 438.08 222.4 439.8C222.28 440.36 223.16 440.56 223.28 440C226.08 426.12 227.04 411.84 226.16 397.72C225.28 383.56 222.64 369.52 218.2 356.08C213.88 343.04 207.88 330.6 200.64 318.92C193.52 307.36 185.28 296.48 176.56 286.08C167.68 275.52 158.32 265.4 148.88 255.32C147.72 254.08 146.52 252.84 145.36 251.6C144.96 251.16 144.32 251.84 144.72 252.24Z" fill="#75CCA4"/>
<path d="M146.12 252.56C142.8 248.76 141.68 243.6 139.56 239.04C137.92 235.52 135.68 232.28 132.96 229.52C131.88 228.44 130.72 227.4 129.4 226.64C128.36 226.04 127.12 225.6 126 226.04C124.88 226.48 124.32 227.68 123.92 228.8C123.44 230.12 123.08 231.44 122.96 232.84C122.68 236.8 124.68 240.64 127.52 243.44C130.36 246.24 133.92 248.12 137.52 249.8C140.4 251.2 143.4 252.52 146.56 252.92" fill="#75CCA4"/>
<path d="M162.8 271.28C160.92 269 158.28 267.52 155.64 266.32C148.8 263.2 141.08 261.6 133.72 263.08C132.44 263.32 131.12 263.68 130.08 264.48C129 265.24 128.2 266.48 128.28 267.8C128.32 269.08 129.2 270.2 130.16 271.04C132.2 272.8 134.88 273.68 137.56 273.96C140.24 274.24 142.96 274 145.64 273.76C151.68 273.2 157.76 272.68 163.8 272.12" fill="#75CCA4"/>
<path d="M164 272.24C159.2 264.08 156.52 254.72 155.56 245.32C155.44 244.12 155.36 242.92 155.56 241.76C155.76 240.6 156.32 239.44 157.28 238.72C158.64 237.68 160.52 237.76 162.24 237.96C163.24 238.08 164.28 238.28 165.08 238.92C166.04 239.76 166.36 241.08 166.56 242.36C167.44 248.32 166.8 254.4 166.12 260.4C165.64 264.64 165.08 268.88 164.52 273.08" fill="#75CCA4"/>
<path d="M185.28 297.72C182.16 294.72 178.72 292.04 175.08 289.72C172.36 288 169.48 286.48 166.4 285.68C163.32 284.92 160.12 284.88 156.96 285.16C155.6 285.28 154.2 285.44 152.92 286C151.64 286.56 150.52 287.52 150.04 288.84C149.24 291 150.52 293.4 152.16 295C153.12 295.92 154.28 296.68 155.48 297.24C159.2 298.96 163.44 298.8 167.52 298.6C171.04 298.44 174.56 298.28 178.08 298.12C180.56 298 183.08 297.92 185.48 298.48" fill="#75CCA4"/>
<path d="M185.8 298.44C181 288.4 176.12 278.04 175.44 266.96C175.36 265.4 175.36 263.8 175.84 262.28C176.32 260.84 177.44 259.4 178.92 259.28C180.48 259.16 181.84 260.44 182.68 261.76C185.64 266.28 185.72 272 185.96 277.4C186.24 284.68 186.96 291.96 186.68 299.24" fill="#75CCA4"/>
<path d="M203.6 325C198.12 318.48 190.6 314 182.88 310.44C181.2 309.68 179.44 308.92 177.6 308.56C175.76 308.2 173.8 308.28 172.12 309.08C171.52 309.36 170.92 309.76 170.52 310.32C170.08 310.92 169.92 311.68 169.88 312.4C169.72 315.8 172.08 318.84 174.92 320.72C179.16 323.52 184.4 324.36 189.48 324.72C194.56 325.08 199.72 325.12 204.6 326.6" fill="#75CCA4"/>
<path d="M204.76 326.68C202.68 319.68 201.36 312.48 200.8 305.2C200.56 302.08 200.48 298.92 201.12 295.88C201.44 294.36 202.2 292.64 203.72 292.36C205.2 292.08 206.48 293.36 207.24 294.64C208.84 297.36 209.2 300.64 209.28 303.8C209.44 311.56 207.92 319.32 204.88 326.44" fill="#75CCA4"/>
<path d="M219.4 360.96C218.24 350.2 216.32 339.4 217.36 328.6C217.48 327.56 217.6 326.52 218.04 325.6C218.48 324.68 219.36 323.88 220.4 323.8C221.56 323.68 222.68 324.44 223.4 325.36C224.84 327.12 225.4 329.44 225.68 331.68C226.4 336.96 225.96 342.36 225.12 347.6C224.32 352.68 223.04 357.88 219.88 361.92" fill="#75CCA4"/>
<path d="M221.72 369.84C217.96 361.68 211.84 354.8 205.12 348.84C202.2 346.28 199.12 343.8 195.6 342.2C194.28 341.6 192.72 341.16 191.44 341.8C189.92 342.56 189.48 344.52 189.56 346.2C189.8 350.2 192.12 353.8 194.92 356.6C198.12 359.8 202.04 362.32 206.32 363.84C211 365.52 215.96 366.04 220.76 367.32" fill="#75CCA4"/>
<path d="M161.92 370.36C171.28 380.28 180.6 390.2 189.48 400.56C198.32 410.84 206.76 421.56 214.16 432.92C221.64 444.4 228.04 456.56 232.76 469.44C237.6 482.68 240.72 496.52 242.04 510.56C243.36 524.64 242.88 538.92 240.52 552.84C240.24 554.52 239.92 556.2 239.6 557.92C239.48 558.48 240.36 558.68 240.48 558.12C243.28 544.24 244.24 529.96 243.36 515.84C242.48 501.68 239.84 487.64 235.4 474.2C231.08 461.16 225.08 448.72 217.84 437.04C210.72 425.48 202.48 414.6 193.76 404.2C184.88 393.64 175.52 383.52 166.08 373.44C164.92 372.2 163.72 370.96 162.56 369.72C162.12 369.28 161.52 369.96 161.92 370.36Z" fill="#75CCA4"/>
<path d="M163.28 370.68C159.96 366.88 158.84 361.72 156.72 357.16C155.08 353.64 152.84 350.4 150.12 347.64C149.04 346.56 147.88 345.52 146.56 344.76C145.52 344.16 144.28 343.72 143.16 344.16C142.04 344.6 141.48 345.8 141.08 346.92C140.6 348.24 140.24 349.56 140.12 350.96C139.84 354.92 141.84 358.8 144.68 361.56C147.52 364.36 151.08 366.24 154.68 367.92C157.56 369.32 160.56 370.64 163.72 371.04" fill="#75CCA4"/>
<path d="M180 389.4C178.12 387.12 175.48 385.64 172.84 384.44C166 381.32 158.28 379.72 150.92 381.2C149.64 381.44 148.32 381.8 147.28 382.6C146.2 383.36 145.4 384.6 145.48 385.92C145.52 387.2 146.4 388.32 147.36 389.16C149.4 390.92 152.08 391.8 154.76 392.08C157.44 392.36 160.16 392.12 162.84 391.88C168.88 391.32 174.96 390.8 181 390.24" fill="#75CCA4"/>
<path d="M181.16 390.36C176.36 382.2 173.68 372.84 172.72 363.44C172.6 362.24 172.52 361.04 172.72 359.88C172.92 358.72 173.48 357.56 174.44 356.84C175.8 355.8 177.68 355.88 179.4 356.08C180.4 356.2 181.44 356.4 182.24 357.04C183.2 357.84 183.52 359.2 183.72 360.48C184.6 366.44 183.96 372.52 183.28 378.52C182.8 382.76 182.24 387 181.68 391.2" fill="#75CCA4"/>
<path d="M202.48 415.84C199.36 412.84 195.92 410.16 192.28 407.84C189.56 406.12 186.68 404.6 183.6 403.8C180.52 403.04 177.32 403 174.16 403.28C172.8 403.4 171.4 403.56 170.12 404.12C168.84 404.68 167.72 405.64 167.24 406.96C166.44 409.12 167.72 411.52 169.36 413.12C170.32 414.04 171.48 414.8 172.68 415.36C176.4 417.08 180.64 416.92 184.72 416.72C188.24 416.56 191.76 416.4 195.28 416.24C197.76 416.12 200.28 416.04 202.68 416.6" fill="#75CCA4"/>
<path d="M203 416.56C198.2 406.52 193.32 396.16 192.64 385.08C192.56 383.52 192.56 381.92 193.04 380.4C193.52 378.96 194.64 377.52 196.12 377.4C197.68 377.28 199.04 378.56 199.88 379.88C202.84 384.4 202.92 390.12 203.16 395.52C203.44 402.8 204.16 410.08 203.88 417.36" fill="#75CCA4"/>
<path d="M220.76 443.16C215.28 436.64 207.76 432.16 200.04 428.6C198.36 427.84 196.6 427.08 194.76 426.72C192.92 426.36 190.96 426.44 189.28 427.24C188.68 427.52 188.08 427.92 187.68 428.48C187.24 429.08 187.08 429.84 187.04 430.56C186.88 433.96 189.24 437 192.08 438.88C196.32 441.68 201.56 442.52 206.64 442.88C211.72 443.24 216.88 443.28 221.76 444.76" fill="#75CCA4"/>
<path d="M221.96 444.8C219.88 437.8 218.56 430.6 218 423.32C217.76 420.2 217.68 417.04 218.32 414C218.64 412.48 219.4 410.76 220.92 410.48C222.4 410.2 223.68 411.48 224.44 412.76C226.04 415.48 226.4 418.76 226.48 421.92C226.64 429.68 225.12 437.44 222.08 444.56" fill="#75CCA4"/>
<path d="M236.6 479.08C235.44 468.32 233.52 457.52 234.56 446.72C234.68 445.68 234.8 444.64 235.24 443.72C235.68 442.8 236.56 442 237.6 441.92C238.76 441.8 239.88 442.56 240.6 443.48C242.04 445.24 242.6 447.56 242.88 449.8C243.6 455.08 243.16 460.48 242.32 465.72C241.52 470.8 240.24 476 237.08 480.04" fill="#75CCA4"/>
<path d="M238.88 487.96C235.12 479.8 229 472.92 222.28 466.96C219.36 464.4 216.28 461.92 212.76 460.32C211.44 459.72 209.88 459.28 208.6 459.92C207.08 460.68 206.64 462.64 206.72 464.32C206.96 468.32 209.28 471.92 212.08 474.72C215.28 477.92 219.2 480.44 223.48 481.96C228.16 483.64 233.12 484.16 237.92 485.44" fill="#75CCA4"/>
<path d="M521.96 231.12C513.24 231.16 504.8 233.4 497.32 237.36C499.24 234.48 501 231.48 502.64 228.44C503.12 227.56 501.76 226.76 501.32 227.64C499.16 231.6 496.8 235.44 494.24 239.12C488.04 243 482.6 248.12 478.44 254.32C479.24 246.76 480.52 239.28 482.6 232C482.64 231.96 482.68 231.92 482.72 231.88C486.2 226.64 491.24 221.08 496.6 217.72C501.8 214.44 507.72 212 513.2 209.24C514.08 208.8 513.32 207.44 512.4 207.92C508.32 209.96 503.92 211.8 499.8 214C501.68 211.24 503 208.12 503.68 204.76C503.88 203.8 502.36 203.36 502.2 204.36C501.32 208.88 499.28 212.84 496.12 216.2C495.12 216.84 494.12 217.52 493.16 218.28C489.84 220.88 486.72 224.08 484 227.48C484 227.48 484 227.48 484 227.44C487.6 216.92 491.64 206.56 495.84 196.28C497.52 192.2 499.12 188 501 183.92C501.16 183.92 501.32 183.88 501.44 183.76C506.88 179.12 514.4 178.44 520.12 174.24C520.92 173.64 520.16 172.32 519.32 172.92C514.16 176.76 507.56 177.76 502.28 181.24C504.96 175.8 508.16 170.68 512.56 166.52C513.28 165.84 512.2 164.76 511.48 165.44C509.72 167.08 508.16 168.88 506.8 170.76C507 168.08 507.12 165.4 507.08 162.72C507.08 161.72 505.52 161.72 505.52 162.72C505.56 165.8 505.44 168.84 505.16 171.92C505.12 172.24 505.28 172.44 505.52 172.56C501.84 178.08 499.24 184.28 496.64 190.44C496.32 191.24 495.96 192.08 495.64 192.88C496.08 184.88 494.96 177.04 492.28 169.4C491.96 168.48 490.44 168.88 490.8 169.8C492.56 174.8 493.6 179.88 494 185.04C491.48 181.68 488.76 178.48 485.84 175.44C485.16 174.72 484.04 175.8 484.76 176.52C487.92 179.8 490.8 183.24 493.48 186.92C493.64 187.16 493.88 187.24 494.12 187.24C494.24 190.4 494.12 193.6 493.76 196.84C493.72 197 493.8 197.12 493.84 197.24C490.08 206.48 486.48 215.8 483.2 225.24C482.28 227.84 481.52 230.48 480.8 233.12C480.24 221.96 478 209.44 471.6 200.2C471.04 199.4 469.68 200.16 470.28 201C476.48 209.96 478.72 222.28 479.28 233.12C475.24 227.16 470.24 222.08 464.36 217.88C463.56 217.32 462.76 218.64 463.56 219.2C470 223.76 475.32 229.44 479.4 236.16C479.56 236.4 479.76 236.48 479.96 236.52C478.4 243.28 477.4 250.16 476.76 257.08C476.76 257.08 476.76 257.12 476.72 257.12C476.56 257.36 476.6 257.6 476.68 257.8C476.4 260.96 476.2 264.08 476.04 267.24C474.24 261.88 470.36 257.12 466.96 252.76C466.36 251.96 465.24 253.08 465.88 253.84C469.84 258.88 474.76 264.88 475.44 271.48C475.48 271.76 475.64 271.96 475.8 272.08C475.44 280.96 475.32 289.88 474.96 298.72C474.92 299.72 476.48 299.72 476.52 298.72C476.68 294.88 476.8 290.96 476.88 287.08C477.08 287.08 477.32 286.96 477.44 286.72C480.6 280.88 485.16 276.16 490.88 272.8C491.76 272.28 490.96 270.96 490.08 271.48C484.6 274.68 480.16 279.12 476.88 284.52C477.08 275.6 477.28 266.64 478.08 257.8C482.24 250.76 488 244.92 494.72 240.68C494.92 240.68 495.16 240.56 495.28 240.36C495.28 240.36 495.28 240.32 495.32 240.32C503.2 235.48 512.4 232.72 521.92 232.72C522.96 232.68 522.96 231.12 521.96 231.12Z" fill="#75CCA4"/>
<path d="M506.4 162.76C503.48 157.4 501.36 151.6 500.24 145.64C499.08 139.48 498.88 133.2 498.88 126.96C498.88 121.2 499.04 115.36 500.68 109.84C501.92 105.6 504.08 101.6 506.88 98.2C507.24 97.76 507.68 97.32 508.24 97.24C509.04 97.16 509.68 97.96 510.04 98.68C512 102.48 512.36 106.88 512.56 111.12C513.36 128.68 512.32 146.6 506.52 163.2" fill="#75CCA4"/>
<path d="M511.72 165.76C515 156.72 516.56 147.12 519.64 137.96C522.68 128.84 527.56 119.8 535.68 114.56C537.12 113.64 538.68 112.84 540.36 112.64C540.88 112.6 541.44 112.6 541.8 112.96C542.04 113.2 542.16 113.56 542.24 113.92C543.64 120.16 541.48 126.6 538.88 132.44C535.44 140.12 531.24 147.44 526.28 154.28C522.44 159.6 517.8 164.84 511.52 166.76" fill="#75CCA4"/>
<path d="M519.2 172.92C528.12 165.84 534.96 156 545.08 150.68C549.76 148.2 554.92 146.84 560.04 145.48C563.32 144.6 566.68 143.76 570.08 143.92C570.4 143.92 570.72 143.96 570.96 144.16C571.6 144.6 571.32 145.6 570.96 146.28C566.24 155.28 558.32 162.4 549.28 167C540.2 171.6 530.04 173.72 519.88 174.08" fill="#75CCA4"/>
<path d="M503.08 204.36C505.44 198.08 508.16 191.96 511.12 185.96C512.52 183.16 514.16 180.24 516.96 178.88C517.12 178.8 517.32 178.72 517.48 178.76C517.92 178.8 518.12 179.32 518.2 179.76C519 184.04 517.08 188.32 514.76 192C511.68 196.88 507.84 201.28 503.4 204.92" fill="#75CCA4"/>
<path d="M512.6 208.92C517.24 203.96 521.76 198.88 526.16 193.68C529.68 189.52 533.16 185.24 537.64 182.2C540.52 180.2 543.76 178.8 547.04 177.48C551.4 175.72 555.88 174.08 560.56 173.6C560.92 173.56 561.28 173.52 561.56 173.68C562.12 173.92 562.28 174.64 562.32 175.24C562.56 177.92 561.44 180.56 560.16 182.92C555.44 191.64 548 199.2 538.64 202.48C530.56 205.32 521.48 204.88 513.72 208.56" fill="#75CCA4"/>
<path d="M501.8 228C504.16 223.76 507.44 220.12 510.92 216.72C514.44 213.32 518.84 210 523.76 210.48C524.12 210.52 524.52 210.6 524.72 210.88C525 211.2 524.96 211.68 524.84 212.08C524.56 213.36 523.92 214.52 523.2 215.6C518.6 222.64 510.6 227.36 502.24 227.96" fill="#75CCA4"/>
<path d="M521 232C526.8 230.16 531.6 226.04 536.88 222.96C542.92 219.44 549.8 217.32 556.76 216.8C558.4 216.68 560.08 216.64 561.56 217.36C563 218.08 564.12 219.76 563.68 221.32C563.44 222.12 562.84 222.8 562.24 223.36C557.12 228.44 550.28 231.68 543.2 233.04C536.12 234.4 528.76 234 521.68 232.48" fill="#75CCA4"/>
<path d="M489.4 272.84C494.76 268.92 498.28 263.04 502.68 258.08C509.56 250.4 518.92 244.84 529.08 243.16C531.72 242.72 534.56 242.56 536.88 243.92C537.36 244.2 537.88 244.64 537.96 245.2C538.04 245.76 537.72 246.32 537.4 246.76C535.28 250 533 253.16 530.6 256.2C526.84 260.92 522.6 265.52 517.04 267.88C514.48 268.96 511.76 269.56 509.04 270C503.48 270.92 497.84 271.4 492.24 271.4" fill="#75CCA4"/>
<path d="M466.44 253.32C460.44 249 454.44 244.64 448.48 240.32C445.48 238.16 442.48 235.96 439.96 233.28C438.28 231.44 436.8 229.4 435.48 227.32C434.68 226.08 433.88 224.76 433.64 223.28C433.4 221.8 433.76 220.16 434.92 219.24C435.16 219.08 435.4 218.92 435.68 218.88C436 218.84 436.32 219 436.64 219.16C445.16 223.28 453.8 227.48 460.6 234.04C462.32 235.72 463.92 237.56 464.92 239.76C465.96 242.08 466.2 244.64 466.44 247.16C466.64 249.08 466.8 250.96 467 252.88" fill="#75CCA4"/>
<path d="M464.08 218.64C457.6 214.56 451.08 210.48 443.92 207.76C441.56 206.84 439.12 206.12 436.84 204.96C432.12 202.6 428.4 198.68 424.96 194.68C422.44 191.72 420 188.64 418.28 185.16C416.56 181.68 415.6 177.68 416.2 173.84C421.84 177.24 427.88 180 434.16 181.92C437.68 183.04 441.36 183.92 444.48 185.96C448.56 188.68 451.16 193.08 453.6 197.36C455.68 200.96 457.76 204.64 459 208.6C460.12 212.16 460.72 216.2 463.6 218.6" fill="#75CCA4"/>
<path d="M471.88 201.52C467.6 195.68 461.36 191.52 456.84 185.84C450.76 178.12 448.28 167.64 450.32 158.04C454.92 162.44 459.52 166.84 463.32 171.92C467.12 177 470.12 182.84 471 189.12C471.6 193.16 471.32 197.32 471.96 201.36" fill="#75CCA4"/>
<path d="M485.32 175.72C476.24 171 469.6 162.72 463.52 154.48C461.16 151.28 458.8 147.96 457.48 144.2C455.56 138.76 455.88 132.84 456.24 127.08C463.72 135 472.32 142.2 477.6 151.72C481.72 159.12 483.6 167.52 485.4 175.76" fill="#75CCA4"/>
<path d="M491.36 169.68C489.48 161.36 485.6 153.68 482.64 145.68C481.08 141.44 479.8 137.12 478.76 132.76C478.24 130.56 477.8 128.32 477.92 126.04C478.12 122.6 479.6 119.36 481.08 116.24C490.8 129.48 495.12 146.52 492.92 162.76C492.56 165.28 492.08 167.8 491.2 170.24" fill="#75CCA4"/>
<path d="M178.84 208.56C187.56 208.6 196 210.84 203.48 214.8C201.56 211.92 199.8 208.92 198.16 205.88C197.68 205 199.04 204.2 199.48 205.08C201.64 209.04 204 212.88 206.56 216.56C212.76 220.44 218.2 225.56 222.36 231.76C221.56 224.2 220.28 216.72 218.2 209.44C218.16 209.4 218.12 209.36 218.08 209.32C214.6 204.08 209.56 198.52 204.2 195.16C199 191.88 193.08 189.44 187.6 186.68C186.72 186.24 187.48 184.88 188.4 185.36C192.48 187.4 196.88 189.24 201 191.44C199.12 188.68 197.8 185.56 197.12 182.2C196.92 181.24 198.44 180.8 198.6 181.8C199.48 186.32 201.52 190.28 204.68 193.64C205.68 194.28 206.68 194.96 207.64 195.72C210.96 198.32 214.08 201.52 216.8 204.92C216.8 204.92 216.8 204.92 216.8 204.88C213.2 194.36 209.16 184 204.96 173.72C203.28 169.64 201.68 165.44 199.8 161.36C199.64 161.36 199.48 161.32 199.36 161.2C193.92 156.56 186.4 155.88 180.68 151.68C179.88 151.08 180.64 149.76 181.48 150.36C186.64 154.2 193.24 155.2 198.52 158.68C195.84 153.24 192.64 148.12 188.24 143.96C187.52 143.28 188.6 142.2 189.32 142.88C191.08 144.52 192.64 146.32 194 148.2C193.8 145.52 193.68 142.84 193.72 140.16C193.72 139.16 195.28 139.16 195.28 140.16C195.24 143.24 195.36 146.28 195.64 149.36C195.68 149.68 195.52 149.88 195.28 150C198.96 155.52 201.56 161.72 204.16 167.88C204.48 168.68 204.84 169.52 205.16 170.32C204.72 162.32 205.84 154.48 208.52 146.84C208.84 145.92 210.36 146.32 210 147.24C208.24 152.24 207.2 157.32 206.8 162.48C209.32 159.12 212.04 155.92 214.96 152.88C215.64 152.16 216.76 153.24 216.04 153.96C212.88 157.24 210 160.68 207.32 164.36C207.16 164.6 206.92 164.68 206.68 164.68C206.56 167.84 206.68 171.04 207.04 174.28C207.08 174.44 207 174.56 206.96 174.68C210.72 183.92 214.32 193.24 217.6 202.68C218.52 205.28 219.28 207.92 220 210.56C220.56 199.4 222.8 186.88 229.2 177.64C229.76 176.84 231.12 177.6 230.52 178.44C224.32 187.4 222.08 199.72 221.52 210.56C225.56 204.6 230.56 199.52 236.44 195.32C237.24 194.76 238.04 196.08 237.24 196.64C230.8 201.2 225.48 206.88 221.4 213.6C221.24 213.84 221.04 213.92 220.84 213.96C222.4 220.72 223.4 227.6 224.04 234.52C224.04 234.52 224.04 234.56 224.08 234.56C224.24 234.8 224.2 235.04 224.12 235.24C224.4 238.4 224.6 241.52 224.76 244.68C226.56 239.32 230.44 234.56 233.84 230.2C234.44 229.4 235.56 230.52 234.92 231.28C230.96 236.32 226.04 242.32 225.36 248.92C225.32 249.2 225.16 249.4 225 249.52C225.36 258.4 225.48 267.32 225.84 276.16C225.88 277.16 224.32 277.16 224.28 276.16C224.12 272.32 224 268.4 223.92 264.52C223.72 264.52 223.48 264.4 223.36 264.16C220.2 258.32 215.64 253.6 209.92 250.24C209.04 249.72 209.84 248.4 210.72 248.92C216.2 252.12 220.64 256.56 223.92 261.96C223.72 253.04 223.52 244.08 222.72 235.24C218.56 228.2 212.8 222.36 206.08 218.12C205.88 218.12 205.64 218 205.52 217.8C205.52 217.8 205.52 217.76 205.48 217.76C197.6 212.92 188.4 210.16 178.88 210.16C177.84 210.12 177.84 208.56 178.84 208.56Z" fill="#75CCA4"/>
<path d="M194.4 140.2C197.32 134.84 199.44 129.04 200.56 123.08C201.72 116.92 201.92 110.64 201.92 104.4C201.92 98.64 201.76 92.8 200.12 87.28C198.88 83.04 196.72 79.04 193.92 75.64C193.56 75.2 193.12 74.76 192.56 74.68C191.76 74.6 191.12 75.4 190.76 76.12C188.8 79.92 188.44 84.32 188.24 88.56C187.44 106.12 188.48 124.04 194.28 140.64" fill="#75CCA4"/>
<path d="M189.08 143.2C185.8 134.16 184.24 124.56 181.16 115.4C178.12 106.28 173.24 97.24 165.12 92C163.68 91.08 162.12 90.28 160.44 90.08C159.92 90.04 159.36 90.04 159 90.4C158.76 90.64 158.64 91 158.56 91.36C157.16 97.6 159.32 104.04 161.92 109.88C165.36 117.56 169.56 124.88 174.52 131.72C178.36 137.04 183 142.28 189.28 144.2" fill="#75CCA4"/>
<path d="M181.6 150.36C172.68 143.28 165.84 133.44 155.72 128.12C151.04 125.64 145.88 124.28 140.76 122.92C137.48 122.04 134.12 121.2 130.72 121.36C130.4 121.36 130.08 121.4 129.84 121.6C129.2 122.04 129.48 123.04 129.84 123.72C134.56 132.72 142.48 139.84 151.52 144.44C160.6 149.04 170.76 151.16 180.92 151.52" fill="#75CCA4"/>
<path d="M197.72 181.8C195.36 175.52 192.64 169.4 189.68 163.4C188.28 160.6 186.64 157.68 183.84 156.32C183.68 156.24 183.48 156.16 183.32 156.2C182.88 156.24 182.68 156.76 182.6 157.2C181.8 161.48 183.72 165.76 186.04 169.44C189.12 174.32 192.96 178.72 197.4 182.36" fill="#75CCA4"/>
<path d="M188.16 186.32C183.52 181.36 179 176.28 174.6 171.08C171.08 166.92 167.6 162.64 163.12 159.6C160.24 157.6 157 156.2 153.72 154.88C149.36 153.12 144.88 151.48 140.2 151C139.84 150.96 139.48 150.92 139.2 151.08C138.64 151.32 138.48 152.04 138.44 152.64C138.2 155.32 139.32 157.96 140.6 160.32C145.32 169.04 152.76 176.6 162.12 179.88C170.2 182.72 179.28 182.28 187.04 185.96" fill="#75CCA4"/>
<path d="M199 205.4C196.64 201.16 193.36 197.52 189.88 194.12C186.36 190.72 181.96 187.4 177.04 187.88C176.68 187.92 176.28 188 176.08 188.28C175.8 188.6 175.84 189.08 175.96 189.48C176.24 190.76 176.88 191.92 177.6 193C182.2 200.04 190.2 204.76 198.56 205.36" fill="#75CCA4"/>
<path d="M179.76 209.44C173.96 207.6 169.16 203.48 163.88 200.4C157.84 196.88 150.96 194.76 144 194.24C142.36 194.12 140.68 194.08 139.2 194.8C137.72 195.52 136.64 197.2 137.08 198.76C137.32 199.56 137.92 200.24 138.52 200.8C143.64 205.88 150.48 209.12 157.56 210.48C164.64 211.84 172 211.44 179.08 209.92" fill="#75CCA4"/>
<path d="M211.4 250.28C206.04 246.36 202.52 240.48 198.12 235.52C191.24 227.84 181.88 222.28 171.72 220.6C169.08 220.16 166.24 220 163.92 221.36C163.44 221.64 162.92 222.08 162.84 222.64C162.76 223.2 163.08 223.76 163.4 224.2C165.52 227.44 167.8 230.6 170.2 233.64C173.96 238.36 178.2 242.96 183.76 245.32C186.32 246.4 189.04 247 191.76 247.44C197.32 248.36 202.96 248.84 208.56 248.84" fill="#75CCA4"/>
<path d="M234.36 230.76C240.36 226.44 246.36 222.08 252.32 217.76C255.32 215.6 258.32 213.4 260.84 210.72C262.52 208.88 264 206.84 265.32 204.76C266.12 203.52 266.92 202.2 267.16 200.72C267.4 199.24 267.04 197.6 265.88 196.68C265.64 196.52 265.4 196.36 265.12 196.32C264.8 196.28 264.48 196.44 264.16 196.6C255.64 200.72 247 204.92 240.2 211.48C238.48 213.16 236.88 215 235.88 217.2C234.84 219.52 234.6 222.08 234.36 224.6C234.16 226.52 234 228.4 233.8 230.32" fill="#75CCA4"/>
<path d="M236.72 196.08C243.2 192 249.72 187.92 256.88 185.2C259.24 184.28 261.68 183.56 263.96 182.4C268.68 180.04 272.4 176.12 275.84 172.12C278.36 169.16 280.8 166.08 282.52 162.6C284.24 159.12 285.2 155.12 284.6 151.28C278.96 154.68 272.92 157.44 266.64 159.36C263.12 160.48 259.44 161.36 256.32 163.4C252.24 166.12 249.64 170.52 247.2 174.8C245.12 178.4 243.04 182.08 241.8 186.04C240.68 189.6 240.08 193.64 237.2 196.04" fill="#75CCA4"/>
<path d="M228.92 178.96C233.2 173.12 239.44 168.96 243.96 163.28C250.04 155.56 252.52 145.08 250.48 135.48C245.88 139.88 241.28 144.28 237.48 149.36C233.68 154.44 230.68 160.28 229.8 166.56C229.2 170.6 229.48 174.76 228.84 178.8" fill="#75CCA4"/>
<path d="M215.44 153.16C224.52 148.44 231.16 140.16 237.24 131.92C239.6 128.72 241.96 125.4 243.28 121.64C245.2 116.2 244.88 110.28 244.52 104.52C237.04 112.44 228.44 119.64 223.16 129.16C219.04 136.56 217.16 144.96 215.36 153.2" fill="#75CCA4"/>
<path d="M209.44 147.08C211.32 138.76 215.2 131.08 218.16 123.08C219.72 118.84 221 114.52 222.04 110.16C222.56 107.96 223 105.72 222.88 103.44C222.68 100 221.2 96.76 219.72 93.64C210 106.88 205.68 123.92 207.88 140.16C208.24 142.68 208.72 145.2 209.6 147.64" fill="#75CCA4"/>
<path d="M481.4 154.12V431.04H212.68V154.12C212.68 136 216.24 118.4 223.24 101.84C230 85.84 239.68 71.48 252.04 59.12C264.36 46.8 278.76 37.08 294.76 30.32C311.24 23.36 328.72 19.8 346.76 19.76C346.88 19.76 346.96 19.76 347.08 19.76C365.2 19.76 382.8 23.32 399.4 30.32C402 31.44 404.56 32.6 407.08 33.88C420 40.32 431.76 48.8 442.08 59.12C446.72 63.76 451 68.72 454.92 73.92C461.32 82.52 466.68 91.84 470.88 101.8C476.12 114.2 479.44 127.16 480.76 140.52C481.16 145.04 481.4 149.56 481.4 154.12Z" fill="#FDFDFD"/>
<path d="M607.16 519.68C607.16 525.08 603 530.28 595.32 535.16C593.6 536.28 591.68 537.36 589.56 538.4C569.68 548.56 534.12 557.16 488.76 563C486.88 563.24 485 563.48 483.12 563.72C458.36 566.76 430.88 568.96 401.56 570.2C399.6 570.28 397.6 570.36 395.6 570.44C380.04 571 364 571.32 347.6 571.32C333.76 571.32 320.16 571.12 306.88 570.68C305 570.64 303.12 570.56 301.24 570.48C273.8 569.48 247.88 567.64 224.2 565.12C221.56 564.84 218.96 564.56 216.4 564.24C139.6 555.28 88 538.68 88 519.68C88 512.8 94.76 506.24 107.04 500.24C109.44 499.08 112 497.92 114.8 496.8C132 489.88 156.8 483.84 186.96 479.12C188.84 478.84 190.76 478.52 192.68 478.24C211.2 475.48 231.6 473.24 253.44 471.56C255.32 471.4 257.2 471.28 259.08 471.12C284.96 469.24 312.8 468.2 341.8 468.04C343.72 468.04 345.64 468.04 347.56 468.04C348.56 468.04 349.56 468.04 350.52 468.04C390.68 468.12 428.68 470.04 462.52 473.36C464.48 473.56 466.44 473.76 468.4 473.96C550.92 482.64 607.16 499.84 607.16 519.68Z" fill="#6585FF"/>
<path d="M295.2 480.8C293.68 475 293.2 468.88 293.8 462.84C293.84 462.28 293.16 462.28 293.12 462.84C292.52 468.96 293 475.16 294.56 481.04C294.68 481.56 295.36 481.36 295.2 480.8Z" fill="#52593A"/>
<path opacity="0.11" d="M91.28 477C112.156 477 129.08 472.809 129.08 467.64C129.08 462.471 112.156 458.28 91.28 458.28C70.4036 458.28 53.48 462.471 53.48 467.64C53.48 472.809 70.4036 477 91.28 477Z" fill="black"/>
<path d="M80.88 366.04C80.88 366.04 59.24 320.28 72.32 286.84C85.44 253.36 113.88 248 113.88 248C113.88 248 141.36 347.56 80.88 366.04Z" fill="#07B464"/>
<path d="M75.16 381.76C75.16 381.76 76.44 327.92 18.04 335.4C18.04 335.4 17.36 386.32 75.16 381.76Z" fill="#1C734A"/>
<path d="M103.44 386.28C103.44 386.28 104.16 330.72 172.4 335.76C172.4 335.76 172.56 385.88 103.44 386.28Z" fill="#07B464"/>
<path d="M87.6 419.44C87.44 419.44 87.28 419.32 87.24 419.16C87.2 418.88 81.72 391.24 79.68 359.28C78.48 340.48 78.68 323.92 80.28 309.96C82.28 292.52 86.48 279.2 92.8 270.4C92.92 270.24 93.12 270.2 93.28 270.32C93.44 270.44 93.48 270.64 93.36 270.8C87.12 279.52 82.96 292.72 80.96 310.04C79.36 323.92 79.16 340.48 80.36 359.2C82.4 391.12 87.88 418.72 87.92 419C87.96 419.2 87.84 419.36 87.64 419.4C87.64 419.44 87.64 419.44 87.6 419.44Z" fill="#52593A"/>
<path d="M81.48 412.8C81.28 412.8 81.16 412.68 81.12 412.48C81.12 412.32 79.84 397 73.92 380.56C68.48 365.44 57.8 346.28 38.08 340.88C37.88 340.84 37.8 340.64 37.84 340.44C37.88 340.24 38.08 340.16 38.28 340.2C47.12 342.64 54.92 347.92 61.48 356C66.68 362.44 71.12 370.6 74.6 380.32C80.56 396.84 81.84 412.24 81.84 412.4C81.84 412.6 81.68 412.76 81.48 412.8Z" fill="#52593A"/>
<path d="M96.2 412.2C95.96 412.16 95.84 412 95.84 411.8C95.84 411.64 97.48 397.24 105 381.6C109.4 372.4 114.96 364.56 121.52 358.36C129.72 350.56 139.48 345.24 150.52 342.56C150.72 342.52 150.88 342.64 150.96 342.8C151 343 150.88 343.16 150.72 343.24C125.96 349.24 112.56 367.56 105.68 381.88C98.2 397.44 96.6 411.72 96.6 411.88C96.56 412.04 96.4 412.2 96.2 412.2Z" fill="#52593A"/>
<path d="M56.44 351.08C56.68 351.08 56.68 350.72 56.44 350.72C56.2 350.72 56.2 351.08 56.44 351.08Z" fill="#52593A"/>
<path d="M56.28 350.48C49.44 347.72 41.88 348.28 34.88 350.04C34.44 350.16 34.64 350.84 35.08 350.72C42 349 49.4 348.44 56.12 351.16C56.52 351.32 56.68 350.64 56.28 350.48Z" fill="#52593A"/>
<path d="M58.72 352.76C56.52 350 54.76 346.92 53.44 343.68C53.28 343.28 52.6 343.44 52.76 343.88C54.12 347.28 55.96 350.4 58.24 353.28C58.52 353.6 59 353.08 58.72 352.76Z" fill="#52593A"/>
<path d="M66.52 363.24C64.24 362.04 61.64 361.76 59.12 361.48C56.32 361.2 53.52 361.12 50.68 361.24C50.24 361.28 50.24 361.96 50.68 361.96C53.32 361.84 56 361.88 58.64 362.12C61.16 362.36 63.88 362.64 66.16 363.84C66.56 364.04 66.92 363.44 66.52 363.24Z" fill="#52593A"/>
<path d="M69.96 369.36C69.56 366.16 68.88 363.04 67.88 360C67.76 359.56 67.08 359.76 67.2 360.2C68.16 363.2 68.84 366.24 69.24 369.36C69.32 369.8 70.04 369.8 69.96 369.36Z" fill="#52593A"/>
<path d="M72.88 376.12C69 374.68 64.84 374.08 60.68 374.32C60.24 374.36 60.24 375.04 60.68 375.04C64.76 374.8 68.84 375.4 72.68 376.84C73.12 376.96 73.28 376.28 72.88 376.12Z" fill="#52593A"/>
<path d="M81.76 305.24C80.48 302.2 79.2 299.16 77.92 296.08C76.72 293.2 75.32 290.28 75 287.12C74.96 286.68 74.24 286.68 74.28 287.12C74.6 290.28 75.92 293.16 77.16 296.08C78.48 299.2 79.8 302.32 81.08 305.44C81.28 305.84 81.96 305.64 81.76 305.24Z" fill="#52593A"/>
<path d="M79.76 329.72C77.08 323.76 71.72 319 70.76 312.28C70.68 311.84 70.04 312.04 70.08 312.48C71.04 319.24 76.4 324.08 79.12 330.08C79.36 330.48 79.96 330.12 79.76 329.72Z" fill="#52593A"/>
<path d="M79.64 347.96C77.88 346 76.12 344.08 74.32 342.12C74 341.8 73.52 342.28 73.84 342.6C75.6 344.56 77.36 346.48 79.16 348.44C79.44 348.76 79.92 348.28 79.64 347.96Z" fill="#52593A"/>
<path d="M79.32 340C84 338.16 88.76 336.44 93.36 334.4C97.32 332.6 100.96 330.24 104.16 327.32C105.96 325.68 107.56 323.88 109.04 321.96C109.32 321.6 108.72 321.24 108.44 321.6C105.88 325 102.76 327.96 99.28 330.32C95.48 332.92 91.28 334.6 87 336.28C84.4 337.32 81.8 338.32 79.16 339.36C78.72 339.48 78.92 340.16 79.32 340Z" fill="#52593A"/>
<path d="M80.28 317.64C84.12 314.64 89.04 313.76 93.52 312.24C97.92 310.72 102 308.48 105.56 305.52C107.64 303.84 109.48 301.92 111.16 299.84C111.44 299.48 110.96 299 110.68 299.36C107.72 303.04 104.08 306.16 100 308.52C97.92 309.72 95.76 310.72 93.52 311.48C91.28 312.28 88.96 312.88 86.72 313.64C84.24 314.48 81.88 315.52 79.8 317.16C79.44 317.4 79.92 317.92 80.28 317.64Z" fill="#52593A"/>
<path d="M83.96 293.36C92.92 291.52 102.24 289.08 109.2 282.8C110.96 281.2 112.52 279.4 113.8 277.4C114.04 277 113.44 276.68 113.2 277.04C108.4 284.56 100 288.56 91.64 290.84C89.04 291.56 86.4 292.12 83.76 292.68C83.32 292.76 83.52 293.44 83.96 293.36Z" fill="#52593A"/>
<path d="M80.12 357.44C85.8 356.72 91.12 354.08 95.12 349.96C95.44 349.64 94.92 349.12 94.64 349.48C90.76 353.44 85.6 356.04 80.12 356.72C79.68 356.8 79.68 357.48 80.12 357.44Z" fill="#52593A"/>
<path d="M112.4 369.88C112 367.88 111.84 365.84 111.96 363.76C112 363.32 111.28 363.32 111.24 363.76C111.12 365.88 111.28 368 111.68 370.04C111.8 370.52 112.48 370.32 112.4 369.88Z" fill="#52593A"/>
<path d="M121.52 358.96C121.72 356.24 121.92 353.48 123.16 351C123.36 350.6 122.76 350.24 122.56 350.64C121.28 353.24 121.04 356.12 120.84 358.96C120.8 359.4 121.48 359.4 121.52 358.96Z" fill="#52593A"/>
<path d="M133.68 349.76C133.96 347 134.96 344.36 136.48 342.04C136.72 341.68 136.12 341.32 135.88 341.68C134.28 344.12 133.28 346.88 133 349.76C132.92 350.24 133.6 350.24 133.68 349.76Z" fill="#52593A"/>
<path d="M146.36 344.08C147.84 341.08 150.52 338.8 153.76 337.92C154.2 337.8 154 337.12 153.56 337.24C150.16 338.16 147.28 340.56 145.76 343.72C145.56 344.12 146.16 344.48 146.36 344.08Z" fill="#52593A"/>
<path d="M107.16 378.52C111.68 378.56 116.24 378.6 120.76 378.32C122.96 378.2 125.16 378 127.32 377.68C129.4 377.4 131.52 377.12 133.4 376.16C133.8 375.96 133.44 375.36 133.04 375.56C131.12 376.52 128.88 376.8 126.8 377.08C124.64 377.36 122.48 377.56 120.32 377.64C115.96 377.88 111.56 377.84 107.16 377.8C106.68 377.8 106.68 378.52 107.16 378.52Z" fill="#52593A"/>
<path d="M115.16 366.08C123.56 367.24 132.16 368.36 140.48 366.16C140.92 366.04 140.72 365.36 140.28 365.48C132.08 367.64 123.6 366.52 115.32 365.4C114.92 365.36 114.72 366.04 115.16 366.08Z" fill="#52593A"/>
<path d="M127.28 354.36C131 355.72 135.04 356.12 138.96 356.36C143.04 356.6 147.16 356.48 151.24 356.08C153.52 355.84 155.8 355.52 158.04 355.08C158.48 355 158.28 354.32 157.84 354.4C150 355.92 141.84 356.28 133.92 355.24C131.72 354.96 129.52 354.48 127.4 353.72C127.08 353.52 126.88 354.2 127.28 354.36Z" fill="#52593A"/>
<path d="M144.36 345.16C148.56 346.88 153.16 347.56 157.68 347.2C158.12 347.16 158.12 346.48 157.68 346.48C153.2 346.84 148.72 346.16 144.56 344.44C144.16 344.32 143.96 345 144.36 345.16Z" fill="#52593A"/>
<path d="M131.48 412.44C131.48 413.16 131.48 413.84 131.44 414.56C131.4 416.28 131.32 418 131.2 419.72C131.08 421.48 130.88 423.24 130.64 425C128.4 442 121.64 456.48 112.4 465.36H69.44C66.4 462.44 63.6 458.88 61.2 454.84C56.24 446.64 52.72 436.36 51.24 425C51 423.28 50.84 421.52 50.68 419.72C50.56 418.04 50.48 416.32 50.44 414.56C50.44 413.88 50.4 413.16 50.4 412.44C50.4 412.32 50.4 412.2 50.4 412.08C50.4 410.28 50.48 408.48 50.56 406.68H131.32C131.44 408.44 131.48 410.24 131.48 412.08C131.48 412.2 131.48 412.32 131.48 412.44Z" fill="#D3A573"/>
<path d="M131.48 412.44C131.48 413.16 131.48 413.84 131.44 414.56H50.4C50.4 413.88 50.36 413.16 50.36 412.44C50.36 412.32 50.36 412.2 50.36 412.08H131.44C131.48 412.2 131.48 412.32 131.48 412.44Z" fill="#FDFDFD"/>
<path d="M131.2 419.68C131.08 421.44 130.88 423.2 130.64 424.96H51.2C50.96 423.24 50.8 421.48 50.64 419.68H131.2Z" fill="#FDFDFD"/>
<path opacity="0.11" d="M131.48 412.44C131.48 413.16 131.48 413.84 131.44 414.56C131.4 416.28 131.32 418 131.2 419.72C131.08 421.48 130.88 423.24 130.64 425C128.4 442 121.64 456.48 112.4 465.36H69.44C66.4 462.44 63.6 458.88 61.2 454.84C98.48 466.68 113.84 444.24 120.12 425C120.72 423.2 121.2 421.44 121.64 419.72C122.12 417.92 122.48 416.2 122.8 414.56C122.96 413.72 123.12 412.88 123.24 412.12C123.6 410.08 123.84 408.28 124 406.72H131.24C131.36 408.48 131.4 410.28 131.4 412.12C131.48 412.2 131.48 412.32 131.48 412.44Z" fill="black"/>
<path opacity="0.11" d="M591.08 466.64C608.93 466.64 623.4 463.058 623.4 458.64C623.4 454.222 608.93 450.64 591.08 450.64C573.23 450.64 558.76 454.222 558.76 458.64C558.76 463.058 573.23 466.64 591.08 466.64Z" fill="black"/>
<path d="M600 371.72C600 371.72 618.52 332.56 607.32 303.96C596.12 275.32 571.76 270.72 571.76 270.72C571.76 270.72 548.24 355.92 600 371.72Z" fill="#07B464"/>
<path d="M604.88 385.16C604.88 385.16 603.8 339.08 653.76 345.48C653.76 345.48 654.36 389.08 604.88 385.16Z" fill="#1C734A"/>
<path d="M580.68 389C580.68 389 580.04 341.48 521.68 345.76C521.72 345.8 521.56 388.68 580.68 389Z" fill="#07B464"/>
<path d="M594.24 417.4C594.4 417.4 594.52 417.32 594.52 417.16C594.56 416.92 599.24 393.28 601 365.92C602.04 349.84 601.84 335.64 600.48 323.72C598.76 308.8 595.16 297.4 589.76 289.88C589.68 289.76 589.48 289.72 589.36 289.8C589.24 289.88 589.2 290.08 589.28 290.2C594.6 297.64 598.2 308.92 599.88 323.76C601.24 335.64 601.4 349.8 600.4 365.84C598.64 393.16 594 416.76 593.92 417C593.88 417.16 594 417.32 594.16 417.36C594.2 417.4 594.24 417.4 594.24 417.4Z" fill="#52593A"/>
<path d="M599.48 411.72C599.64 411.72 599.76 411.6 599.76 411.44C599.76 411.32 600.84 398.2 605.92 384.12C610.6 371.2 619.72 354.8 636.6 350.2C636.76 350.16 636.84 350 636.8 349.84C636.76 349.68 636.6 349.6 636.44 349.64C628.88 351.72 622.2 356.24 616.6 363.16C612.12 368.68 608.36 375.68 605.36 383.96C600.24 398.08 599.2 411.28 599.16 411.4C599.16 411.56 599.28 411.68 599.48 411.72Z" fill="#52593A"/>
<path d="M586.88 411.2C587.08 411.2 587.2 411.04 587.16 410.88C587.16 410.76 585.76 398.44 579.32 385.04C575.56 377.16 570.8 370.48 565.2 365.16C558.2 358.48 549.84 353.96 540.4 351.64C540.24 351.6 540.08 351.68 540.04 351.88C540 352.04 540.08 352.2 540.28 352.24C561.48 357.4 572.92 373.08 578.8 385.32C585.2 398.6 586.56 410.88 586.6 411C586.6 411.08 586.72 411.2 586.88 411.2Z" fill="#52593A"/>
<path d="M620.92 358.92C620.72 358.92 620.72 358.6 620.92 358.6C621.12 358.64 621.12 358.92 620.92 358.92Z" fill="#52593A"/>
<path d="M621.04 358.4C626.88 356.04 633.36 356.52 639.36 358C639.72 358.08 639.56 358.68 639.2 358.56C633.28 357.12 626.96 356.64 621.2 358.96C620.84 359.12 620.68 358.56 621.04 358.4Z" fill="#52593A"/>
<path d="M618.96 360.36C620.84 358 622.36 355.36 623.48 352.6C623.64 352.24 624.2 352.4 624.04 352.76C622.88 355.64 621.32 358.36 619.36 360.8C619.12 361.08 618.72 360.64 618.96 360.36Z" fill="#52593A"/>
<path d="M612.28 369.32C614.24 368.32 616.48 368.04 618.6 367.8C621 367.56 623.4 367.48 625.8 367.6C626.2 367.6 626.2 368.2 625.8 368.2C623.52 368.08 621.24 368.12 618.96 368.36C616.8 368.56 614.48 368.8 612.52 369.84C612.24 370 611.96 369.48 612.28 369.32Z" fill="#52593A"/>
<path d="M609.32 374.56C609.64 371.84 610.24 369.16 611.08 366.56C611.2 366.2 611.76 366.36 611.64 366.72C610.8 369.28 610.24 371.92 609.88 374.56C609.88 374.92 609.28 374.92 609.32 374.56Z" fill="#52593A"/>
<path d="M606.84 380.36C610.16 379.12 613.72 378.6 617.28 378.8C617.68 378.84 617.68 379.44 617.28 379.4C613.76 379.2 610.28 379.72 607 380.92C606.64 381.04 606.48 380.48 606.84 380.36Z" fill="#52593A"/>
<path d="M599.24 319.72C600.32 317.12 601.44 314.52 602.52 311.88C603.56 309.4 604.76 306.92 605.04 304.2C605.08 303.8 605.68 303.8 605.64 304.2C605.36 306.92 604.24 309.36 603.2 311.84C602.08 314.52 600.96 317.16 599.84 319.84C599.68 320.2 599.08 320.04 599.24 319.72Z" fill="#52593A"/>
<path d="M600.96 340.64C603.28 335.56 607.84 331.44 608.64 325.72C608.68 325.32 609.28 325.52 609.2 325.88C608.4 331.68 603.8 335.8 601.44 340.96C601.32 341.28 600.8 341 600.96 340.64Z" fill="#52593A"/>
<path d="M601.08 356.24C602.6 354.56 604.12 352.92 605.64 351.24C605.92 350.96 606.32 351.36 606.08 351.68C604.56 353.36 603.04 355 601.52 356.68C601.24 356.96 600.8 356.52 601.08 356.24Z" fill="#52593A"/>
<path d="M601.32 349.44C597.32 347.88 593.24 346.4 589.32 344.64C585.96 343.12 582.8 341.08 580.08 338.56C578.56 337.16 577.16 335.6 575.92 333.96C575.68 333.64 576.2 333.36 576.44 333.64C578.64 336.52 581.28 339.08 584.28 341.12C587.52 343.32 591.16 344.76 594.8 346.2C597.04 347.08 599.28 347.96 601.48 348.84C601.84 349 601.68 349.6 601.32 349.44Z" fill="#52593A"/>
<path d="M600.52 330.32C597.24 327.76 593.04 327 589.2 325.68C585.44 324.4 581.96 322.44 578.88 319.92C577.12 318.48 575.52 316.84 574.08 315.08C573.84 314.8 574.28 314.36 574.52 314.64C577.04 317.8 580.16 320.48 583.68 322.48C585.44 323.48 587.32 324.36 589.24 325C591.16 325.68 593.16 326.2 595.08 326.84C597.2 327.56 599.24 328.44 601 329.84C601.24 330.12 600.8 330.52 600.52 330.32Z" fill="#52593A"/>
<path d="M597.36 309.52C589.68 307.96 581.72 305.84 575.76 300.48C574.24 299.12 572.92 297.56 571.84 295.88C571.64 295.56 572.16 295.24 572.36 295.56C576.48 302 583.68 305.4 590.8 307.36C593.04 307.96 595.28 308.48 597.56 308.92C597.88 309.04 597.72 309.6 597.36 309.52Z" fill="#52593A"/>
<path d="M600.64 364.36C595.8 363.72 591.24 361.48 587.8 357.96C587.52 357.68 587.96 357.24 588.24 357.52C591.56 360.92 595.96 363.12 600.64 363.72C601.04 363.8 601.04 364.4 600.64 364.36Z" fill="#52593A"/>
<path d="M573.04 375C573.4 373.28 573.52 371.52 573.4 369.76C573.36 369.36 573.96 369.36 574 369.76C574.12 371.56 574 373.36 573.6 375.16C573.52 375.52 572.96 375.36 573.04 375Z" fill="#52593A"/>
<path d="M565.24 365.64C565.08 363.32 564.88 360.92 563.84 358.84C563.68 358.48 564.2 358.2 564.36 358.52C565.48 360.72 565.68 363.2 565.84 365.64C565.84 366.04 565.24 366.04 565.24 365.64Z" fill="#52593A"/>
<path d="M554.84 357.8C554.6 355.44 553.76 353.16 552.44 351.2C552.24 350.88 552.76 350.56 552.96 350.88C554.32 352.96 555.16 355.32 555.44 357.8C555.48 358.2 554.88 358.2 554.84 357.8Z" fill="#52593A"/>
<path d="M544 352.92C542.76 350.36 540.44 348.4 537.68 347.68C537.32 347.56 537.48 347 537.84 347.12C540.72 347.92 543.2 349.96 544.52 352.64C544.68 352.96 544.16 353.28 544 352.92Z" fill="#52593A"/>
<path d="M577.52 382.4C573.64 382.44 569.76 382.44 565.88 382.24C564 382.12 562.12 381.96 560.24 381.72C558.48 381.48 556.68 381.24 555.04 380.4C554.68 380.24 555 379.72 555.36 379.88C557 380.72 558.92 380.92 560.72 381.16C562.56 381.4 564.4 381.56 566.28 381.64C570.04 381.84 573.8 381.8 577.52 381.8C577.92 381.8 577.92 382.4 577.52 382.4Z" fill="#52593A"/>
<path d="M570.64 371.76C563.48 372.76 556.08 373.72 548.96 371.84C548.6 371.76 548.76 371.16 549.12 371.28C556.12 373.12 563.4 372.16 570.48 371.2C570.88 371.12 571.04 371.72 570.64 371.76Z" fill="#52593A"/>
<path d="M560.28 361.72C557.08 362.88 553.64 363.24 550.28 363.4C546.76 363.6 543.24 363.52 539.76 363.16C537.8 362.96 535.88 362.68 533.96 362.32C533.6 362.24 533.76 361.68 534.12 361.76C540.84 363.04 547.8 363.36 554.56 362.48C556.44 362.24 558.32 361.84 560.12 361.2C560.48 361 560.64 361.6 560.28 361.72Z" fill="#52593A"/>
<path d="M545.68 353.84C542.08 355.32 538.16 355.92 534.28 355.6C533.88 355.56 533.88 354.96 534.28 355C538.12 355.32 541.96 354.72 545.52 353.28C545.88 353.12 546.04 353.72 545.68 353.84Z" fill="#52593A"/>
<path d="M556.68 411.4C556.68 412 556.68 412.6 556.68 413.2C556.72 414.68 556.8 416.16 556.88 417.6C557 419.12 557.16 420.64 557.36 422.12C559.28 436.64 565.04 449.04 572.96 456.64H609.76C612.36 454.12 614.76 451.12 616.84 447.64C621.08 440.6 624.08 431.84 625.36 422.08C625.56 420.6 625.72 419.08 625.84 417.56C625.96 416.12 626.04 414.64 626.04 413.16C626.04 412.56 626.04 411.96 626.04 411.36C626.04 411.24 626.04 411.16 626.04 411.04C626.04 409.48 626 407.96 625.88 406.44H556.8C556.72 407.96 556.68 409.48 556.64 411.04C556.68 411.2 556.68 411.32 556.68 411.4Z" fill="#D3A573"/>
<path d="M556.68 411.4C556.68 412 556.68 412.6 556.68 413.2H626.04C626.04 412.6 626.04 412 626.04 411.4C626.04 411.28 626.04 411.2 626.04 411.08H556.68C556.68 411.2 556.68 411.32 556.68 411.4Z" fill="#FDFDFD"/>
<path d="M556.92 417.6C557.04 419.12 557.2 420.64 557.4 422.12H625.4C625.6 420.64 625.76 419.12 625.88 417.6H556.92Z" fill="#FDFDFD"/>
<path opacity="0.11" d="M556.68 411.4C556.68 412 556.68 412.6 556.68 413.2C556.72 414.68 556.8 416.16 556.88 417.6C557 419.12 557.16 420.64 557.36 422.12C559.28 436.64 565.04 449.04 572.96 456.64H609.76C612.36 454.12 614.76 451.12 616.84 447.64C584.92 457.8 571.8 438.56 566.4 422.08C565.88 420.56 565.48 419.04 565.08 417.56C564.68 416.04 564.36 414.56 564.08 413.16C563.92 412.44 563.8 411.72 563.68 411.04C563.4 409.28 563.16 407.76 563 406.44H556.8C556.72 407.96 556.68 409.48 556.64 411.04C556.68 411.2 556.68 411.32 556.68 411.4Z" fill="black"/>
<path d="M303.64 551.96C300.4 544.72 294.8 538.28 287.04 532.84C277.96 526.48 265.76 521.44 250.76 517.8C221.2 510.64 201.32 497.4 193.28 479.6C193.08 479.16 192.88 478.68 192.68 478.24C190.76 478.52 188.84 478.8 186.96 479.12C188 481.84 189.36 484.68 191.08 487.52C195.68 495.12 202.36 501.84 210.92 507.52C221.08 514.24 234.04 519.56 249.44 523.28C275.6 529.64 292.12 540.04 298.48 554.2C300.76 559.28 301.72 564.76 301.28 570.52C303.16 570.6 305.04 570.64 306.92 570.72C307.32 564.16 306.24 557.76 303.64 551.96ZM196.36 541.56C184.36 535.04 169.68 529.92 152.72 526.28C138.72 523.28 128.12 519.64 121.24 515.48C116 512.32 113 508.92 112.36 505.36C111.84 502.44 113 499.48 114.8 496.84C112 497.96 109.44 499.12 107.04 500.28C106.56 502.2 106.44 504.24 106.8 506.36C107.72 511.56 111.6 516.28 118.28 520.32C125.68 524.8 136.88 528.68 151.52 531.8C188.24 539.68 206.56 553.24 215.52 563.28C215.84 563.64 216.12 563.96 216.4 564.28C218.96 564.6 221.56 564.88 224.2 565.16C223.04 563.48 221.68 561.72 220.08 559.92C214.04 553 206.04 546.8 196.36 541.56ZM484.52 542.04C480.64 531.6 474.24 522.72 465.56 515.52C454.8 506.64 440.52 500.52 423.04 497.24C385.44 490.2 363.28 477.8 351.36 468.64C351.08 468.44 350.84 468.24 350.6 468.04C349.6 468.04 348.6 468.04 347.64 468.04C345.72 468.04 343.8 468.04 341.88 468.04C343.56 469.56 345.44 471.16 347.56 472.8C355.52 478.96 365.04 484.48 375.88 489.16C389.36 495 404.88 499.56 422.08 502.8C451.8 508.36 471.04 522.16 479.24 543.8C482 551.16 483 558.2 483.24 563.76C485.12 563.52 487 563.28 488.88 563.04C488.48 557.16 487.4 549.76 484.52 542.04ZM360.12 518.08C347.12 510.4 332.12 506.2 315.52 505.64C291.84 504.84 275.2 498.48 266.08 486.72C262.56 482.2 260.2 476.96 259.08 471.08C257.2 471.2 255.32 471.36 253.44 471.52C254.68 478.44 257.48 484.8 261.56 490.12C266.24 496.16 272.68 501 280.76 504.48C290.08 508.52 301.72 510.8 315.32 511.24C343.64 512.2 366.24 523.92 382.48 546.12C389 555.04 393.12 563.96 395.56 570.36C397.56 570.28 399.56 570.2 401.52 570.12C399.08 563.32 394.64 553.24 387.16 542.96C379.64 532.64 370.52 524.24 360.12 518.08ZM572.64 524.88C558.72 520.12 543.4 517.52 527.12 517.12C506.32 516.6 490.56 510.4 480.32 498.64C473.44 490.76 470.08 481.48 468.44 474C466.48 473.8 464.52 473.6 462.56 473.4C463.4 477.84 464.64 482.08 466.2 486.04C468.64 492.16 471.96 497.64 476.04 502.32C487.4 515.32 504.56 522.2 527 522.76C554.72 523.44 575.36 530.72 589.56 538.44C591.64 537.36 593.56 536.28 595.32 535.2C588.28 531.04 580.68 527.6 572.64 524.88ZM122 486.08L123.52 488.48L122 486.08Z" fill="#5A76E3"/>
<path opacity="0.11" d="M361.6 555.36C476.1 555.36 568.92 540.406 568.92 521.96C568.92 503.514 476.1 488.56 361.6 488.56C247.1 488.56 154.28 503.514 154.28 521.96C154.28 540.406 247.1 555.36 361.6 555.36Z" fill="black"/>
<path opacity="0.21" d="M407.04 33.88L212.68 330.08V224.08L346.72 19.8C346.84 19.8 346.92 19.8 347.04 19.8C365.16 19.8 382.76 23.36 399.36 30.36C401.96 31.44 404.52 32.64 407.04 33.88Z" fill="#D0D1C9"/>
<path opacity="0.21" d="M480.72 140.56L290.08 431.08H220.52L454.84 73.96C461.24 82.56 466.6 91.88 470.8 101.84C476.08 114.24 479.4 127.2 480.72 140.56Z" fill="#D0D1C9"/>
<path d="M470.92 101.6C464.16 85.6 454.48 71.24 442.12 58.88C429.8 46.56 415.4 36.84 399.4 30.08C382.84 23.08 365.24 19.52 347.08 19.52C328.96 19.52 311.36 23.08 294.76 30.08C278.76 36.84 264.4 46.52 252.04 58.88C239.72 71.2 230 85.6 223.24 101.6C216.24 118.16 212.68 135.76 212.68 153.88V430.8H481.4V153.88C481.48 135.76 477.92 118.16 470.92 101.6ZM472.72 138.8H426.64C426.64 138.72 426.64 138.64 426.64 138.56C426.64 128.6 424.68 118.96 420.84 109.84C418 103.16 414.24 96.96 409.6 91.44L436.52 64.52C456.12 84.04 469.28 109.96 472.72 138.8ZM418.84 138.52C418.84 138.6 418.84 138.68 418.84 138.76H362.28L404.08 97C413.32 108.36 418.84 122.8 418.84 138.52ZM355 27.6C384 29.4 410.36 41 430.84 59.12L404.32 85.64C397.72 79.2 390.08 74.16 381.6 70.56C373.16 67 364.2 65.04 355 64.8V27.6ZM355 72.64C371.96 73.16 387.36 80.16 398.76 91.2L355 134.96V72.64ZM263.56 58.92L296.12 91.48C291.52 97 287.76 103.16 284.96 109.84C281.12 118.92 279.16 128.6 279.16 138.56C279.16 138.64 279.16 138.72 279.16 138.8H221.48C225.24 107.12 240.8 79 263.56 58.92ZM301.72 97.08L343.44 138.8H287C287 138.72 287 138.64 287 138.56C287 122.84 292.52 108.4 301.72 97.08ZM347.2 422.96H220.6V153.88C220.6 151.44 220.68 149.04 220.8 146.64H347.2V422.96ZM347.2 131.44L307 91.28C317.6 81 331.6 74.24 347.16 72.88V131.44H347.2ZM347.2 65C339.28 65.6 331.56 67.48 324.24 70.56C315.76 74.16 308.08 79.24 301.48 85.68L269.68 53.88C291.12 37.24 318 27.32 347.16 27.32H347.24V65H347.2ZM473.64 422.96H355.04V146.64H473.44C473.56 149.04 473.64 151.44 473.64 153.88V422.96Z" fill="#B5D8C1"/>
<path d="M455.04 465C455.04 465 460.44 481.12 460.76 483.96C461.12 486.84 460.24 491.6 464.24 497.16C468.24 502.72 469.48 507.88 466.64 511.16C463.84 514.44 464.64 515.6 468.52 516.08C472.4 516.6 475.56 512 474.44 504.04C473.32 496.08 455.04 465 455.04 465Z" fill="#F18B86"/>
<path d="M347.2 356.04C347.2 356.04 347.16 356.04 347.12 356.08C346.84 356.24 345.44 356.96 343.2 358.12C341.76 358.88 339.96 359.8 337.92 360.88C335.8 362 333.36 363.24 330.72 364.6C330.12 364.92 329.52 365.2 328.92 365.52C322.4 368.84 314.88 372.64 307.56 376.24C294 382.84 281.2 388.68 277 389.2C276.96 389.2 276.92 389.2 276.88 389.2C274.92 389.44 272.8 389.48 270.52 389.32C269.36 389.24 268.16 389.08 266.88 388.84C266.36 388.76 265.8 388.64 265.24 388.52C262.24 387.92 258.92 387 255.12 385.72C247.48 383.16 237.96 379.12 225.6 373.28C220.6 370.92 216.2 368.76 212.28 366.68C207.52 364.16 203.56 361.8 200.4 359.48C192.96 354 189.96 348.68 191.2 341.88C191.4 340.76 191.72 339.64 192.12 338.44C192.84 336.4 194.08 335.32 195.76 334.88C202.52 333.16 216.36 341.88 230.84 339.64C235.16 338.96 239.52 338.52 243.72 338.28C256.96 337.48 268.76 338.52 274.44 339.64C278 340.32 279.48 340.96 282.08 341.04C283.24 341.08 284.6 341 286.44 340.76C289.24 340.4 293.2 339.64 299.24 338.4C300.88 338.04 302.48 337.76 304 337.56C319.96 335.36 329.28 340.4 334.68 346.04C336.76 348.24 338.96 350.16 340.92 351.68C343.68 353.88 345.96 355.32 346.8 355.84C347.08 355.96 347.2 356.04 347.2 356.04Z" fill="#FEBD7B"/>
<path d="M301.6 278.4C298.48 285.6 287 282.44 284.68 283.24C284.08 283.44 282.76 284.84 280.96 287.04C280.84 287.2 280.68 287.36 280.56 287.56C275.2 294.16 266 307.04 258.68 316.44C253.08 323.68 248.52 331.68 243.8 338.28C240.04 343.52 236.12 347.88 231.48 350.2C223.24 354.32 203.12 347.64 194.88 344.6C192.64 343.76 191.24 343.2 191.24 343.2C191.24 343.2 191.2 342.72 191.32 341.84C191.6 339 193.2 332.08 201.48 325.72C201.68 325.56 201.88 325.44 202.08 325.28C213 316.92 233.72 301.2 242.88 293.96C247.68 290.16 254.6 282.4 261.84 273.28C268.64 264.68 275.68 254.84 281.44 245.96C293.28 227.68 302.92 216.76 308.76 217.76C314.6 218.76 305.08 241.8 302.16 254.84C301.96 255.72 301.8 256.6 301.68 257.4C299.92 268.4 304.48 271.68 301.6 278.4Z" fill="#FDC5B4"/>
<path d="M280.56 287.56C275.2 294.16 266 307.04 258.68 316.44C254.04 322.44 250.12 328.96 246.2 334.8C245.4 336 244.6 337.16 243.8 338.28C242.12 340.64 240.4 342.8 238.6 344.68C236.4 347 234.04 348.92 231.48 350.2C223.24 354.32 203.12 347.64 194.88 344.6C192.64 343.76 191.24 343.2 191.24 343.2C191.24 343.2 191.2 342.72 191.32 341.84C191.6 339 193.2 332.08 201.48 325.72C201.68 325.56 201.88 325.44 202.08 325.28C213 316.92 233.72 301.2 242.88 293.96C247.68 290.16 254.6 282.4 261.84 273.28C263.6 277.4 268.6 285.32 280.56 287.56Z" fill="#0B4654"/>
<path opacity="0.16" d="M246.2 334.8C245.4 336 244.6 337.16 243.8 338.28C242.12 340.64 240.4 342.8 238.6 344.68L233.16 346.28C233.16 346.28 197.2 337.28 212.92 337.88C228 338.48 241.2 335.92 246.2 334.8Z" fill="black"/>
<path d="M347.2 356.04C347.2 356.04 347.16 356.04 347.12 356.08C346.84 356.24 345.44 356.96 343.2 358.12C341.76 358.88 339.96 359.8 337.92 360.88C335.8 362 333.36 363.24 330.72 364.6C330.12 364.92 329.52 365.2 328.92 365.52C322.4 368.84 314.88 372.64 307.56 376.24C294 382.84 281.2 388.68 277 389.2C276.96 389.2 276.92 389.2 276.88 389.2C274.92 389.44 272.8 389.48 270.52 389.32C269.36 389.24 268.16 389.08 266.88 388.84C266.36 388.76 265.8 388.64 265.24 388.52C262.24 387.92 258.92 387 255.12 385.72C247.48 383.16 237.96 379.12 225.6 373.28C220.6 370.92 216.2 368.76 212.28 366.68C207.52 364.16 203.56 361.8 200.4 359.48C192.96 354 189.96 348.68 191.2 341.88C191.4 340.76 191.72 339.64 192.12 338.44C192.84 336.4 194.08 335.32 195.76 334.88C202.52 333.16 216.36 341.88 230.84 339.64C235.16 338.96 239.52 338.52 243.72 338.28C256.96 337.48 268.76 338.52 274.44 339.64C278 340.32 279.48 340.96 282.08 341.04C283.24 341.08 284.6 341 286.44 340.76C289.24 340.4 293.2 339.64 299.24 338.4C300.88 338.04 302.48 337.76 304 337.56C319.96 335.36 329.28 340.4 334.68 346.04C336.76 348.24 338.96 350.16 340.92 351.68C343.68 353.88 345.96 355.32 346.8 355.84C347.08 355.96 347.2 356.04 347.2 356.04Z" fill="#0B4654"/>
<path opacity="0.16" d="M308.56 350.4L307.64 376.2C294.08 382.8 281.28 388.64 277.08 389.16C277.04 389.16 277 389.16 276.96 389.16C275 389.4 272.88 389.44 270.6 389.28C269.44 389.2 268.24 389.04 266.96 388.8C266.44 388.72 265.88 388.6 265.32 388.48C262.32 387.88 259 386.96 255.2 385.68C247.56 383.12 238.04 379.08 225.68 373.24C220.68 370.88 216.28 368.72 212.36 366.64C207.6 364.12 203.64 361.76 200.48 359.44C193.04 353.96 190.04 348.64 191.28 341.84C191.56 339 193.16 332.08 201.44 325.72C201.64 325.56 201.84 325.44 202.04 325.28C199.04 328.8 197.04 332 195.84 334.88C194.28 338.56 194.08 341.76 194.84 344.6C197.28 353.44 209.36 358.72 220.6 364.16C238.28 372.72 258.24 377.2 270.88 360.08C283.56 343 308.56 350.4 308.56 350.4Z" fill="black"/>
<path d="M289.6 512.24C289.44 512.6 289.24 512.92 289.04 513.24C284.52 520.96 276.48 525.4 266.04 521.56C255.16 517.6 245.44 488.96 236.4 470.04C228.8 454.16 219.36 429.96 212.84 412.04C212.8 411.96 212.76 411.84 212.76 411.76C211.56 408.44 210.44 405.36 209.48 402.6C204 386.96 198 365.8 200.52 359.48C200.88 358.56 201.4 357.96 202.12 357.72C202.16 357.72 202.16 357.72 202.2 357.68C205.64 356.6 209.08 361.44 212.36 366.68C214.6 370.24 216.72 374.04 218.76 376.32C223.8 382 232.76 380.76 236.52 386.2C238.24 388.64 237.04 391.36 235.28 393.92C233.16 397.04 230.16 400 230.44 402.12C230.52 402.64 230.8 403.36 231.24 404.24C231.28 404.36 231.36 404.44 231.4 404.56C231.4 404.6 231.44 404.6 231.44 404.64C234.72 410.96 245.28 425.04 250.88 434.08C250.96 434.2 251 434.32 251.08 434.4C251.16 434.52 251.2 434.6 251.28 434.72L251.32 434.76C251.4 434.88 251.44 434.96 251.52 435.08C251.6 435.2 251.68 435.28 251.72 435.4C251.8 435.52 251.88 435.6 251.92 435.72C252 435.84 252.08 435.92 252.12 436.04C252.2 436.16 252.28 436.24 252.32 436.36C252.6 436.8 252.92 437.2 253.24 437.64C253.4 437.84 253.56 438.04 253.68 438.28C253.76 438.4 253.84 438.48 253.92 438.6C253.92 438.6 253.92 438.6 253.92 438.64C254.12 438.92 254.32 439.2 254.56 439.48C254.68 439.6 254.76 439.76 254.88 439.88C254.96 439.96 255.04 440.08 255.08 440.16C255.16 440.28 255.28 440.4 255.36 440.52C255.44 440.6 255.48 440.68 255.56 440.76C255.64 440.84 255.72 440.96 255.8 441.04C255.88 441.12 255.96 441.24 256.04 441.32C256.12 441.4 256.2 441.52 256.28 441.6C256.36 441.68 256.44 441.8 256.52 441.88C256.6 441.96 256.68 442.08 256.76 442.16C256.84 442.24 256.92 442.36 257 442.44C257.08 442.52 257.16 442.6 257.24 442.68C257.32 442.8 257.4 442.88 257.52 442.96C257.6 443.04 257.68 443.16 257.76 443.24C258.24 443.8 258.76 444.36 259.24 444.88C259.36 445 259.44 445.12 259.56 445.2C259.6 445.24 259.68 445.32 259.72 445.36C259.76 445.4 259.84 445.48 259.88 445.52C260.2 445.84 260.52 446.16 260.8 446.48C260.96 446.64 261.12 446.8 261.28 447C261.36 447.08 261.44 447.16 261.52 447.24C261.6 447.32 261.72 447.44 261.8 447.52C261.88 447.6 261.96 447.68 262 447.72C262.16 447.88 262.32 448.04 262.48 448.2C262.52 448.24 262.56 448.28 262.6 448.32C262.64 448.36 262.68 448.4 262.72 448.44C263.24 448.96 263.72 449.4 264.16 449.84C264.2 449.88 264.28 449.96 264.32 450L264.36 450.04C264.4 450.08 264.44 450.12 264.48 450.16C264.64 450.32 264.8 450.44 264.96 450.6C266.76 452.28 267.96 453.24 267.96 453.24C267.96 453.24 267.96 453.24 267.96 453.28C267.96 453.28 267.96 453.28 267.96 453.32C268 453.4 268.04 453.48 268.12 453.64C268.12 453.68 268.16 453.68 268.16 453.72C268.16 453.72 268.16 453.76 268.2 453.76C268.2 453.8 268.24 453.84 268.24 453.88C268.28 453.96 268.32 454.08 268.4 454.2C268.44 454.24 268.44 454.32 268.48 454.36C268.52 454.44 268.56 454.48 268.56 454.56C268.6 454.6 268.64 454.68 268.64 454.76C268.68 454.8 268.68 454.84 268.72 454.92C268.76 454.96 268.76 455.04 268.8 455.08C268.84 455.2 268.92 455.32 268.96 455.44C269 455.52 269.04 455.6 269.08 455.68C269.32 456.16 269.56 456.68 269.88 457.24C269.92 457.32 269.96 457.44 270.04 457.52C270.24 457.88 270.44 458.28 270.64 458.72C270.68 458.76 270.68 458.84 270.72 458.92C270.92 459.36 271.16 459.84 271.4 460.32C271.48 460.52 271.56 460.68 271.68 460.88C271.68 460.88 271.68 460.92 271.72 460.92C271.76 461 271.8 461.04 271.84 461.12C271.88 461.2 271.92 461.28 271.96 461.36C272 461.48 272.08 461.6 272.12 461.72C272.12 461.72 272.12 461.76 272.16 461.76C272.28 462.04 272.4 462.28 272.56 462.56C272.56 462.6 272.6 462.6 272.6 462.64C272.64 462.72 272.68 462.8 272.72 462.88C272.76 462.96 272.8 463.04 272.84 463.12C272.92 463.32 273.04 463.52 273.12 463.72C273.2 463.92 273.32 464.12 273.4 464.32C273.44 464.44 273.52 464.56 273.56 464.68C274.12 465.88 274.72 467.12 275.32 468.44C275.36 468.52 275.4 468.6 275.44 468.72C276.4 470.8 277.4 472.96 278.4 475.2C278.48 475.36 278.52 475.48 278.6 475.64C278.76 475.96 278.88 476.32 279.04 476.64C279.8 478.36 280.56 480.16 281.32 481.92C281.4 482.08 281.44 482.24 281.52 482.4C282.56 484.88 283.6 487.36 284.52 489.8C284.56 489.88 284.6 490 284.64 490.08C284.8 490.48 284.96 490.92 285.12 491.32C285.16 491.4 285.2 491.52 285.24 491.6C285.28 491.68 285.28 491.72 285.32 491.8C285.36 491.88 285.4 492 285.44 492.08C285.88 493.28 286.32 494.44 286.68 495.56C286.76 495.8 286.84 496.08 286.96 496.32C287 496.4 287.04 496.52 287.04 496.6C287.08 496.68 287.12 496.76 287.12 496.88C287.32 497.52 287.52 498.12 287.72 498.72C287.76 498.8 287.76 498.88 287.8 498.92C287.84 499 287.84 499.08 287.88 499.16C287.88 499.2 287.92 499.24 287.92 499.28C287.96 499.36 287.96 499.4 288 499.48C288.08 499.72 288.16 500 288.24 500.24C288.28 500.4 288.32 500.56 288.4 500.72C288.44 500.88 288.52 501.08 288.56 501.24C288.6 501.36 288.64 501.52 288.68 501.64C288.8 502.04 288.92 502.48 289 502.84C289 502.92 289.04 503 289.04 503.08C289.04 503.16 289.08 503.24 289.08 503.32C289.12 503.56 289.2 503.76 289.24 504C289.28 504.24 289.36 504.44 289.4 504.64C289.44 504.76 289.44 504.92 289.48 505.04C289.48 505.12 289.52 505.2 289.52 505.28C289.56 505.4 289.56 505.56 289.6 505.68C289.64 505.8 289.64 505.96 289.68 506.08C289.72 506.2 289.72 506.32 289.76 506.48C289.8 506.68 289.84 506.88 289.84 507.12C289.84 507.16 289.84 507.24 289.88 507.28C289.96 507.8 290 508.28 290.04 508.76C290.04 508.84 290.04 508.92 290.04 509C290.16 510.4 290 511.48 289.6 512.24Z" fill="#FDC5B4"/>
<path d="M289.6 512.24C289.44 512.6 289.24 512.92 289.04 513.24C284.52 520.96 276.48 525.4 266.04 521.56C255.16 517.6 245.44 488.96 236.4 470.04C228.8 454.16 219.36 429.96 212.84 412.04C212.8 411.96 212.76 411.84 212.76 411.76C214.08 411.64 215.72 411.4 217.6 410.96C221.72 410.04 226.88 408.16 231.44 404.52C234.68 410.8 245.28 424.92 250.92 434.04C251 434.16 251.04 434.28 251.12 434.36C251.2 434.48 251.24 434.56 251.32 434.68L251.36 434.72C251.44 434.84 251.48 434.92 251.56 435.04C251.64 435.16 251.72 435.24 251.76 435.36C251.84 435.48 251.92 435.56 251.96 435.68C252.04 435.8 252.12 435.88 252.16 436C252.24 436.12 252.32 436.2 252.36 436.32C252.64 436.76 252.96 437.16 253.28 437.6C253.44 437.8 253.6 438 253.72 438.24C253.8 438.36 253.88 438.44 253.96 438.56C253.96 438.56 253.96 438.56 253.96 438.6C254.16 438.88 254.36 439.16 254.6 439.44C254.72 439.56 254.8 439.72 254.92 439.84C255 439.92 255.08 440.04 255.12 440.12C255.2 440.24 255.32 440.36 255.4 440.48C255.48 440.56 255.52 440.64 255.6 440.72C255.68 440.8 255.76 440.92 255.84 441C255.92 441.08 256 441.2 256.08 441.28C256.16 441.36 256.24 441.48 256.32 441.56C256.4 441.64 256.48 441.76 256.56 441.84C256.64 441.92 256.72 442.04 256.8 442.12C256.88 442.2 256.96 442.32 257.04 442.4C257.12 442.48 257.2 442.56 257.28 442.64C257.36 442.76 257.44 442.84 257.56 442.92C257.64 443 257.72 443.12 257.8 443.2C258.28 443.76 258.8 444.32 259.28 444.84C259.4 444.96 259.48 445.08 259.6 445.16C259.64 445.2 259.72 445.28 259.76 445.32C259.8 445.36 259.88 445.44 259.92 445.48C260.24 445.8 260.56 446.12 260.84 446.44C261 446.6 261.16 446.76 261.32 446.96C261.4 447.04 261.48 447.12 261.56 447.2C261.64 447.28 261.76 447.4 261.84 447.48C261.92 447.56 262 447.64 262.04 447.68C262.2 447.84 262.36 448 262.52 448.16C262.56 448.2 262.6 448.24 262.64 448.28C262.68 448.32 262.72 448.36 262.76 448.4C263.28 448.92 263.76 449.36 264.2 449.8C264.24 449.84 264.32 449.92 264.36 449.96L264.4 450C264.44 450.04 264.48 450.08 264.52 450.12C264.68 450.28 264.84 450.4 265 450.56C266.8 452.24 268 453.2 268 453.2C268 453.2 268 453.2 268 453.24C268 453.24 268 453.24 268 453.28C268.04 453.36 268.08 453.44 268.16 453.6C268.16 453.64 268.2 453.64 268.2 453.68C268.2 453.68 268.2 453.72 268.24 453.72C268.24 453.76 268.28 453.8 268.28 453.84C268.32 453.92 268.36 454.04 268.44 454.16C268.48 454.2 268.48 454.28 268.52 454.32C268.56 454.4 268.6 454.44 268.6 454.52C268.64 454.56 268.68 454.64 268.68 454.72C268.72 454.76 268.72 454.8 268.76 454.88C268.8 454.92 268.8 455 268.84 455.04C268.88 455.16 268.96 455.28 269 455.4C269.04 455.48 269.08 455.56 269.12 455.64C269.36 456.12 269.6 456.64 269.92 457.2C269.96 457.28 270 457.4 270.08 457.48C270.28 457.84 270.48 458.24 270.68 458.68C270.72 458.72 270.72 458.8 270.76 458.88C270.96 459.32 271.2 459.8 271.44 460.28C271.52 460.48 271.6 460.64 271.72 460.84C271.72 460.84 271.72 460.88 271.76 460.88C271.8 460.96 271.84 461 271.88 461.08C271.92 461.16 271.96 461.24 272 461.32C272.04 461.44 272.12 461.56 272.16 461.68C272.16 461.68 272.16 461.72 272.2 461.72C272.32 462 272.44 462.24 272.6 462.52C272.6 462.56 272.64 462.56 272.64 462.6C272.68 462.68 272.72 462.76 272.76 462.84C272.8 462.92 272.84 463 272.88 463.08C272.96 463.28 273.08 463.48 273.16 463.68C273.24 463.88 273.36 464.08 273.44 464.28C273.48 464.4 273.56 464.52 273.6 464.64C274.16 465.84 274.76 467.08 275.36 468.4C275.4 468.48 275.44 468.56 275.48 468.68C276.44 470.76 277.44 472.92 278.44 475.16C278.52 475.32 278.56 475.44 278.64 475.6C278.8 475.92 278.92 476.28 279.08 476.6C279.84 478.32 280.6 480.12 281.36 481.88C281.44 482.04 281.48 482.2 281.56 482.36C282.6 484.84 283.64 487.32 284.56 489.76C284.6 489.84 284.64 489.96 284.68 490.04C284.84 490.44 285 490.88 285.16 491.28C285.2 491.36 285.24 491.48 285.28 491.56C285.32 491.64 285.32 491.68 285.36 491.76C285.4 491.84 285.44 491.96 285.48 492.04C285.92 493.24 286.36 494.4 286.72 495.52C286.8 495.76 286.88 496.04 287 496.28C287.04 496.36 287.08 496.48 287.08 496.56C287.12 496.64 287.16 496.72 287.16 496.84C287.36 497.48 287.56 498.08 287.76 498.68C287.8 498.76 287.8 498.84 287.84 498.88C287.88 498.96 287.88 499.04 287.92 499.12C287.92 499.16 287.96 499.2 287.96 499.24C288 499.32 288 499.36 288.04 499.44C288.12 499.68 288.2 499.96 288.28 500.2C288.32 500.36 288.36 500.52 288.44 500.68C288.48 500.84 288.56 501.04 288.6 501.2C288.64 501.32 288.68 501.48 288.72 501.6C288.84 502 288.96 502.44 289.04 502.8C289.04 502.88 289.08 502.96 289.08 503.04C289.08 503.12 289.12 503.2 289.12 503.28C289.16 503.52 289.24 503.72 289.28 503.96C289.32 504.2 289.4 504.4 289.44 504.6C289.48 504.72 289.48 504.88 289.52 505C289.52 505.08 289.56 505.16 289.56 505.24C289.6 505.36 289.6 505.52 289.64 505.64C289.68 505.76 289.68 505.92 289.72 506.04C289.76 506.16 289.76 506.28 289.8 506.44C289.84 506.64 289.88 506.84 289.88 507.08C289.88 507.12 289.88 507.2 289.92 507.24C290 507.76 290.04 508.24 290.08 508.72C290.08 508.8 290.08 508.88 290.08 508.96C290.16 510.4 290 511.48 289.6 512.24Z" fill="#0B4654"/>
<path opacity="0.16" d="M279.16 476.64C275.84 494.68 267.28 512.72 263.28 508.84C255.88 501.64 260 455.16 260.84 446.56C262.44 448.2 263.92 449.64 265.12 450.76C266.92 452.44 268.12 453.4 268.12 453.4C268.12 453.4 273.64 464.16 279.16 476.64Z" fill="black"/>
<path d="M460.44 267.2C453.6 272 428.24 270 422 266.36C399.16 252.96 411.32 228.36 419.72 227.16C428.12 225.96 435.96 235.96 439.16 237.16C442.16 238.28 450.52 235.84 453.6 237.2C453.8 237.28 453.96 237.4 454.12 237.52C456.48 239.44 451.96 244.52 453.44 245.36C453.52 245.4 453.64 245.44 453.76 245.48C456.12 245.84 457.84 245.8 458.04 247.56C458.24 249.32 460.56 245.88 460.92 249.84C461.28 253.76 465.44 252.96 467.32 256.04C469.16 259.04 467.32 262.4 460.44 267.2Z" fill="#FDC5B4"/>
<path d="M456.92 297.44C456.68 298.44 456.44 299.36 456.16 300.28C455.84 301.48 455.52 302.6 455.16 303.72C453.12 310.36 450.88 315.24 449.12 318.4C448.2 320.08 447.4 321.28 446.84 322.04C446.56 322.4 446.36 322.68 446.16 322.84C446.04 322.96 445.8 323.08 445.48 323.12C442.48 323.76 431.96 321.56 429.48 317.2C428.12 314.76 425.84 310.32 423.96 306.4C422.08 302.52 420.56 299.2 420.56 298.8C420.56 298.72 420.64 298.12 420.72 297.12C421.2 292.92 422.56 281.72 423.68 272.76C424.52 265.8 425.24 260.16 425.24 260.16L457.08 266.2L457.68 266.4C457.68 266.4 457.84 267.12 458.04 268.44C458.72 273.08 459.96 285.04 456.92 297.44Z" fill="#FDC5B4"/>
<path d="M447.24 382.16C444.12 384.84 440 386.52 434.76 387.12C426.44 388.04 419.76 390.28 413.52 392.96C407.96 395.32 402.76 398.04 397.08 400.52C387.84 404.52 367.76 408.76 353.8 409.76C353.8 409.76 353.8 409.76 353.76 409.76C352.68 409.84 351.6 409.88 350.6 409.92C350.48 409.92 350.4 409.92 350.28 409.92C348.68 409.96 347.2 409.96 345.88 409.88C344.88 409.84 343.96 409.72 343.12 409.6C339.32 409 335.8 405.64 332.84 401.48C332.48 400.96 332.12 400.44 331.76 399.88C327.12 392.8 323.96 384.16 323.28 382.24C323.2 382 323.16 381.84 323.16 381.84L329 365.48L333.2 353.72L333.48 353L335.6 347.08C338.88 350.92 342.44 354.04 346.88 355.8C348.44 356.4 350.08 356.88 351.88 357.16C355.04 357.64 358.64 357.56 362.76 356.8C366.4 356.12 369.88 353.52 373.2 349.92C378.12 344.56 382.8 336.88 387.52 329.48C391.2 323.68 394.92 318.08 398.76 313.84C405.64 306.28 413.96 300.8 420.76 297.12C421.96 296.48 423.08 295.88 424.16 295.36C426.76 294.08 429 293.08 430.68 292.4C431.32 292.12 431.88 291.88 432.36 291.72C432.36 291.72 432.72 292.24 433.36 293.16C433.96 294.08 434.84 295.36 435.92 296.88C439.24 301.84 444.28 309.52 448 316.08C448.44 316.88 448.84 317.64 449.2 318.44C450.68 321.68 451.28 324.84 451.6 328.24C452 332.84 451.84 337.96 452.28 344.48C452.48 347.48 452.84 350.8 453.44 354.52C455.48 367.32 453.48 376.76 447.24 382.16Z" fill="#FDC5B4"/>
<path d="M452.24 344.44C450.92 356.04 448.92 372.04 447.24 382.12C444.12 384.8 440 386.48 434.76 387.08C426.44 388 419.76 390.24 413.52 392.92C408.48 389.44 387.68 374.44 377.64 359.04C375.64 356 374.08 352.92 373.16 349.92C378.08 344.56 382.76 336.88 387.48 329.48C388.2 330.92 389.88 333.88 392.44 337.2C397.64 343.88 406.56 352.04 419.12 351.88C435.84 351.68 444.88 334.88 445.48 323.12C445.64 319.88 445.16 317 444 314.96C440.32 308.52 437.24 302.6 434 299.12C432.56 297.56 431.08 296.48 429.52 296.08C427.68 295.6 425.8 295.4 424.16 295.32C426.76 294.04 429 293.04 430.68 292.36C431.48 292.52 432.4 292.72 433.36 293.12C433.96 294.04 434.84 295.32 435.92 296.84C439.24 301.8 444.28 309.48 448 316.04C448.44 316.84 448.84 317.6 449.2 318.4C452.56 326.04 451.44 333.04 452.24 344.44Z" fill="#EEF5E9"/>
<path d="M350.6 409.88C350.6 409.88 350.48 409.88 350.28 409.88C348.68 409.92 347.2 409.92 345.88 409.84C340.92 409.84 333.24 409.92 328.44 410.4C327.24 410.52 326.2 410.68 325.48 410.84C325.04 410.92 324.68 411.12 324.32 411.36C320.32 414.24 321.28 427.84 308.76 463.92C301.04 486.2 295.68 503.44 289.08 513.2C284.04 520.6 278.28 523.76 270.16 521.6C264.08 519.96 261.48 515 260.68 507.68C259.32 494.52 263.88 473.68 265.16 450.72C265.36 446.84 265.48 442.92 265.48 438.96C265.4 420.88 264.88 403.96 266.84 389.84C266.88 389.52 266.92 389.16 267 388.84C269.52 371.72 275.76 358.76 290.96 352.96C306.84 346.92 322.56 350 333.24 353.76L333.52 353.04L335.64 347.12C338.92 350.96 342.48 354.08 346.92 355.84C348.48 356.44 350.12 356.92 351.92 357.2C351.92 357.2 351.88 357.24 351.88 357.28C351.88 357.28 351.88 357.32 351.84 357.32C351.76 357.44 351.68 357.6 351.52 357.88C351.52 357.92 351.48 357.92 351.48 357.96C351.44 358.04 351.4 358.08 351.36 358.16C351.36 358.2 351.32 358.24 351.28 358.28C351.24 358.36 351.2 358.44 351.16 358.52C351.12 358.56 351.12 358.6 351.08 358.64C350.92 358.96 350.72 359.32 350.56 359.72C350.52 359.76 350.52 359.84 350.48 359.88C350.48 359.92 350.44 359.96 350.44 359.96C350.4 360 350.4 360.08 350.36 360.12C350.08 360.76 349.76 361.52 349.44 362.32C349.4 362.4 349.36 362.48 349.36 362.56C349.32 362.64 349.32 362.72 349.28 362.8C349.28 362.84 349.24 362.92 349.24 362.96C349.08 363.44 348.88 363.96 348.72 364.52C348.68 364.6 348.68 364.64 348.64 364.72C348.52 365.04 348.44 365.36 348.36 365.72C348.36 365.76 348.32 365.8 348.32 365.88C348.28 366.04 348.24 366.2 348.2 366.36C348.2 366.4 348.16 366.48 348.16 366.52C348.12 366.64 348.12 366.72 348.08 366.84C348.04 367 348 367.16 347.96 367.36C347.92 367.48 347.92 367.6 347.88 367.72C347.84 367.96 347.76 368.2 347.72 368.44C347.68 368.64 347.64 368.84 347.6 369.04C347.6 369.12 347.56 369.2 347.56 369.32C347.52 369.44 347.52 369.56 347.48 369.68C347.48 369.76 347.44 369.8 347.44 369.88C347.44 369.96 347.4 370.08 347.4 370.16C347.4 370.24 347.36 370.36 347.36 370.44C347.28 370.8 347.24 371.2 347.16 371.56C347.16 371.64 347.12 371.76 347.12 371.84C347.12 371.92 347.08 372.04 347.08 372.12C347.04 372.4 347 372.64 346.96 372.92C346.96 372.96 346.96 372.96 346.96 373C346.92 373.32 346.88 373.64 346.84 373.92C346.84 374.04 346.8 374.12 346.8 374.24C346.8 374.36 346.76 374.44 346.76 374.56C346.76 374.68 346.72 374.76 346.72 374.88C346.72 375 346.72 375.08 346.68 375.2C346.68 375.32 346.64 375.44 346.64 375.56C346.64 375.64 346.64 375.72 346.6 375.84C346.6 375.92 346.6 376 346.6 376.08C346.6 376.16 346.6 376.2 346.6 376.28C346.6 376.32 346.6 376.32 346.6 376.36C346.6 376.44 346.6 376.48 346.6 376.56C346.6 376.64 346.6 376.72 346.6 376.8C346.6 376.92 346.6 377 346.6 377.12V377.16C346.6 377.28 346.6 377.36 346.6 377.48C346.6 377.56 346.6 377.68 346.6 377.76C346.6 377.8 346.6 377.84 346.6 377.84C346.6 377.96 346.6 378.04 346.6 378.16C346.6 378.24 346.6 378.32 346.6 378.36C346.6 378.44 346.6 378.48 346.6 378.56C346.6 379.04 346.6 379.56 346.6 380.08C346.6 380.16 346.6 380.2 346.6 380.28C346.6 380.36 346.6 380.4 346.6 380.48C346.6 380.56 346.6 380.6 346.6 380.68C346.6 380.72 346.6 380.8 346.6 380.84C346.6 380.88 346.6 380.96 346.6 381C346.6 381.08 346.6 381.16 346.6 381.24C346.6 381.36 346.6 381.44 346.6 381.56C346.6 381.64 346.6 381.76 346.6 381.84C346.6 381.96 346.6 382.12 346.6 382.24C346.6 382.32 346.6 382.36 346.6 382.44C346.6 382.52 346.6 382.56 346.6 382.64C346.6 382.72 346.6 382.76 346.6 382.84C346.6 382.88 346.6 382.92 346.6 383C346.6 383.08 346.6 383.2 346.6 383.28C346.6 383.36 346.6 383.48 346.6 383.56V383.6C346.6 383.68 346.6 383.8 346.6 383.88C346.6 383.96 346.6 384.08 346.64 384.16C346.64 384.36 346.68 384.56 346.68 384.76C346.68 384.84 346.68 384.96 346.72 385.04C346.72 385.12 346.72 385.24 346.76 385.32C346.76 385.4 346.76 385.52 346.8 385.6C346.84 385.84 346.84 386.04 346.88 386.28C346.88 386.36 346.88 386.44 346.92 386.48C346.96 386.68 346.96 386.92 347 387.12C347 387.28 347.04 387.44 347.04 387.6C347.08 387.76 347.08 387.92 347.12 388.08C347.12 388.16 347.16 388.24 347.16 388.32C347.16 388.4 347.16 388.44 347.2 388.52C347.24 388.8 347.28 389.04 347.32 389.32C347.32 389.44 347.36 389.52 347.36 389.64C347.36 389.76 347.4 389.88 347.44 390C347.44 390.08 347.48 390.2 347.48 390.28C347.48 390.36 347.52 390.44 347.52 390.56C347.64 391.12 347.72 391.68 347.84 392.28C347.84 392.36 347.88 392.44 347.88 392.52C347.92 392.76 348 393 348.04 393.24C348.04 393.32 348.08 393.4 348.08 393.48C348.12 393.64 348.16 393.76 348.2 393.92C348.2 394 348.24 394.08 348.24 394.16C348.32 394.44 348.36 394.68 348.44 394.96C348.48 395.04 348.48 395.16 348.52 395.24C348.84 396.48 349.2 397.76 349.64 399.08C349.68 399.2 349.72 399.28 349.76 399.4C349.8 399.48 349.8 399.56 349.84 399.64C349.88 399.72 349.88 399.8 349.92 399.84C349.96 399.92 350 400.04 350 400.12V400.16C350.04 400.24 350.04 400.32 350.08 400.4C350.12 400.48 350.16 400.6 350.16 400.68C350.2 400.76 350.24 400.88 350.28 400.96C350.44 401.44 350.64 401.92 350.8 402.4C350.84 402.48 350.88 402.6 350.92 402.68C350.96 402.76 350.96 402.84 351 402.88C351.04 402.96 351.04 403 351.08 403.08C351.12 403.16 351.12 403.2 351.16 403.28C351.2 403.36 351.24 403.44 351.24 403.52C351.6 404.4 351.96 405.32 352.36 406.24C352.4 406.36 352.48 406.48 352.52 406.6C352.56 406.68 352.6 406.8 352.64 406.88C352.68 407 352.72 407.08 352.76 407.2C352.8 407.28 352.84 407.36 352.88 407.44C353.04 407.76 353.16 408.08 353.32 408.4C353.36 408.52 353.4 408.6 353.48 408.72C353.56 408.92 353.68 409.12 353.76 409.32C353.8 409.44 353.88 409.52 353.92 409.64C352.64 409.8 351.6 409.84 350.6 409.88Z" fill="#0B4654"/>
<path d="M456.92 297.44C456.68 298.44 456.44 299.36 456.16 300.28C458 290.2 458.36 276.56 453.64 274.04C444.48 269.12 443.48 264.32 449.2 266.8C453.32 268.56 456.52 268.56 458 268.44C458.72 273.08 459.96 285.04 456.92 297.44Z" fill="#F18B86"/>
<path d="M431.8 274.32C430.56 272.56 429 272.4 428.84 272.4C428.84 272.4 428.44 272.48 427.88 272.64C427.96 272.52 428 272.44 428.04 272.4C428.4 272 435.08 265.92 435.08 265.92C435.08 265.92 436.64 270.72 431.8 274.32Z" fill="#F18B86"/>
<path d="M453.44 245.36C450.2 246.08 450.44 244.44 452.8 241.6C454.52 239.52 454.12 238 453.6 237.2C453.8 237.28 453.96 237.4 454.12 237.52C456.48 239.4 451.96 244.52 453.44 245.36Z" fill="#F18B86"/>
<path opacity="0.16" d="M435.88 296.84C435.44 297.48 434.96 298.12 434.4 298.72C434.28 298.84 434.16 299 434.04 299.12C430.76 302.68 427.48 304.64 424 306.36C416.04 310.36 407.2 313.2 395.96 331.52C394.76 333.52 393.6 335.36 392.48 337.12C386 347.48 381.44 354.08 377.68 359C373.48 364.44 370.24 367.84 366.28 372.08C361 377.72 354.12 378.6 347.6 373.56C347.32 373.36 347.04 373.12 346.8 372.92C343.68 370.28 340.68 366.28 338 360.84C337.84 360.52 337.68 360.2 337.52 359.88C336.52 357.8 335.4 355.8 334.16 353.96C333.92 353.64 333.72 353.32 333.48 353C327.04 344.12 317.2 338.4 304.12 337.56C320.08 335.36 329.4 340.4 334.8 346.04C336.88 348.24 339.08 350.16 341.04 351.68C343.8 353.88 346.08 355.32 346.92 355.84C348.48 356.44 350.12 356.92 351.92 357.2C355.08 357.68 358.68 357.6 362.8 356.84C366.44 356.16 369.92 353.56 373.24 349.96C378.16 344.6 382.84 336.92 387.56 329.52C391.24 323.72 394.96 318.12 398.8 313.88C405.68 306.32 414 300.84 420.8 297.16C421.28 292.96 422.64 281.76 423.76 272.8L433.48 272.04C433.4 272 444.08 285.08 435.88 296.84Z" fill="black"/>
<path d="M386.84 269.52C386.44 269.28 385.92 268.92 385.24 268.4C384.8 268.08 384.36 267.8 383.92 267.56C383.88 267.52 383.84 267.52 383.8 267.48C378.04 264.36 371.12 266 371 266.04C376.92 263.44 385 266.6 385 266.6C385 266.6 385.2 266.8 385.44 267.08C385.92 267.56 386.64 268.32 387.16 268.96C387.32 269.16 387.48 269.36 387.6 269.52C388 270.04 387.96 270.24 386.84 269.52Z" fill="#565249"/>
<path d="M406.96 287.32C405.44 298.32 400.36 302.4 394.6 302.48C392.56 302.52 390.44 302.04 388.36 301.2C380.44 298 373 289.4 372.8 282.28C372.8 282 372.8 281.68 372.8 281.4C372.84 278.32 373.64 275.92 374.84 273.96C376.2 271.72 378.12 270.2 380.04 269.12C381.24 268.44 382.4 267.96 383.48 267.64C383.6 267.6 383.72 267.56 383.8 267.52C384.4 267.32 384.96 267.2 385.44 267.08C386.72 266.8 387.56 266.72 387.56 266.72C387.56 266.72 392.88 264.92 398.04 266.12C400.6 266.72 403.12 268.08 404.92 270.8C407 274.04 408.08 279.2 406.96 287.32Z" fill="#565249"/>
<path d="M387.64 269.52C387.52 269.56 387.24 269.56 386.84 269.52C386.4 269.48 385.84 269.4 385.04 269.24C383.32 268.92 381.6 268.92 380.04 269.08C375.64 269.56 372.32 271.4 372.24 271.44C375.6 268.48 381.48 267.76 383.48 267.6C383.68 267.6 383.84 267.56 383.96 267.56C384.12 267.56 384.2 267.56 384.2 267.56C384.2 267.56 386.24 268.36 387.24 268.92C387.64 269.2 387.88 269.44 387.64 269.52Z" fill="#565249"/>
<path opacity="0.16" d="M406.96 287.32C405.44 298.32 400.36 302.4 394.6 302.48C403.72 299 399.96 286.44 392.84 283.56C384.52 280.2 391.32 271.28 382.88 271.8C379.4 272 376.72 272.96 374.8 274C376.16 271.76 378.08 270.24 380 269.16C375.6 269.64 372.28 271.48 372.2 271.52C375.56 268.56 381.44 267.84 383.44 267.68C383.56 267.64 383.68 267.6 383.76 267.56C378 264.44 371.08 266.08 370.96 266.12C376.88 263.52 384.96 266.68 384.96 266.68C384.96 266.68 385.16 266.88 385.4 267.16C386.68 266.88 387.52 266.8 387.52 266.8C387.52 266.8 392.84 265 398 266.2C400.24 267.68 402.56 269.28 404.88 270.88C407 274.04 408.08 279.2 406.96 287.32Z" fill="black"/>
<path d="M429.28 270.6C434.72 278.4 437.64 284.24 435.08 290.16C432.52 296.08 418.56 303.4 406.88 290.16C395.2 276.92 379.16 268.4 380.72 251.04C381.12 246.44 382.72 241.92 385.2 237.96C392.04 227 405.6 220.08 420 226.64C420.16 226.72 420.32 226.8 420.48 226.88C420.48 226.88 418.68 228.28 419.56 233.64C420.44 239 428.32 236.92 426.92 242.6C425.52 248.28 437.52 253.84 436.4 258.36C435.28 262.88 423.84 262.8 429.28 270.6Z" fill="#565249"/>
<path opacity="0.16" d="M429.28 270.6C434.72 278.4 437.64 284.24 435.08 290.16C432.52 296.08 418.56 303.4 406.88 290.16C395.2 276.92 379.16 268.4 380.72 251.04C381.12 246.44 382.72 241.92 385.2 237.96C383.48 243.08 382.36 252.44 390.16 263.6C402.08 280.72 418.08 281.6 415.52 271C412.96 260.4 417.24 257 425.88 257.68C434.52 258.32 421.76 249.92 422.64 244.08C423.52 238.36 412.8 235.6 419.96 226.6C420.12 226.68 420.28 226.76 420.44 226.84C420.44 226.84 418.64 228.24 419.52 233.6C420.4 238.96 428.28 236.88 426.88 242.56C425.48 248.24 437.48 253.8 436.36 258.32C435.24 262.84 423.84 262.8 429.28 270.6Z" fill="black"/>
<path opacity="0.06" d="M388.36 301.2C380.44 298 373 289.4 372.8 282.28C372.8 282 372.8 281.68 372.8 281.4C375.8 276.92 384.08 273.6 383.36 282.64C382.56 292.52 390.96 287.72 391.96 294.32C392.44 297.44 391 300 388.36 301.2Z" fill="white"/>
<path opacity="0.06" d="M386.96 239.16C382.52 248.84 392.6 262.8 398.84 266.44C405.08 270.08 404.64 254.52 414.76 251.48C424.88 248.48 396.4 218.72 386.96 239.16Z" fill="white"/>
<path d="M434.08 260.84C434.08 260.84 422.24 258.44 418.36 263.56C414.48 268.68 421.48 275.84 431.76 272.08C442 268.28 439.64 261.88 434.08 260.84Z" fill="#FDC5B4"/>
<path d="M431.6 264.2C431.6 264.2 431.04 265.56 429.48 266.68C427.92 267.8 425.36 265.36 427.36 263.76C427.36 263.76 425.48 264 425.92 266.24C426.36 268.48 429.6 267.84 429.6 267.84C429.6 267.84 424.96 269.8 422.84 267.6C420.72 265.4 422.52 263.32 422.52 263.32C422.52 263.32 419.36 266.28 422.84 269.52C426.32 272.68 434.68 268.24 431.6 264.2Z" fill="#F18B86"/>
<path opacity="0.16" d="M447.24 382.16C444.12 384.84 440 386.52 434.76 387.12C426.44 388.04 419.76 390.28 413.52 392.96C407.96 395.32 402.76 398.04 397.08 400.52C387.84 404.52 367.76 408.76 353.8 409.76C353.8 409.76 353.8 409.76 353.76 409.76C352.68 409.84 351.6 409.88 350.6 409.92C350.6 409.92 350.48 409.92 350.28 409.92C348.68 409.96 347.2 409.96 345.88 409.88C340.92 409.88 333.24 409.96 328.44 410.44C327.24 410.56 326.2 410.72 325.48 410.88C325.04 410.96 324.68 411.16 324.32 411.4C320.32 414.28 321.28 427.88 308.76 463.96C301.04 486.24 295.68 503.48 289.08 513.24C284.56 520.96 276.52 525.4 266.08 521.56C255.2 517.6 245.48 488.96 236.44 470.04C228.84 454.16 219.4 429.96 212.88 412.04C212.84 411.96 212.8 411.84 212.8 411.76C211.6 408.44 210.48 405.36 209.52 402.6C204.04 386.96 198.04 365.8 200.56 359.48C200.92 358.56 201.44 357.96 202.16 357.72C202.2 357.72 202.2 357.72 202.24 357.68C202.8 362.04 205.68 380.64 217.6 411C218.6 413.52 219.64 416.12 220.76 418.8C234.2 451.04 248.96 491.64 260.68 507.72C263.44 511.52 266.04 513.96 268.4 514.6C274.88 516.36 281.56 510.92 287.92 499C293.76 488.12 299.32 471.84 304.4 450.68C314.96 406.4 319.08 417 318.88 401.12C318.76 392.24 321.4 385.92 323.28 382.32C324.76 379.44 326.6 378.2 328.4 378.44C331.52 378.88 327.2 391.96 331.76 399.96C332.08 400.52 332.44 401.04 332.84 401.56C334.24 403.32 336.28 404.68 339.08 405.44C342.8 406.44 347.32 406.68 352.2 406.4C367.4 405.52 385.8 399.72 395.76 393.2C414.8 380.76 411.32 330.64 411.32 330.64C411.32 330.64 438.72 325.32 451.56 328.28C451.96 332.88 451.8 338 452.24 344.52C452.44 347.52 452.8 350.84 453.4 354.56C455.48 367.32 453.48 376.76 447.24 382.16Z" fill="black"/>
<path opacity="0.16" d="M301.6 278.4C298.48 285.6 287 282.44 284.68 283.24C284.08 283.44 282.76 284.84 280.96 287.04C271.12 281.64 274.24 273.12 276.64 276.16C279.24 279.48 299.88 279.84 300.48 268.4C300.84 261.8 301.28 258.84 301.64 257.44C299.92 268.4 304.48 271.68 301.6 278.4Z" fill="black"/>
<path opacity="0.16" d="M231.4 404.56C231.4 404.6 231.44 404.6 231.44 404.64C224.84 405.52 218.08 401.28 224.8 400.36C229.64 399.68 233.32 396.28 235.32 393.96C233.2 397.08 230.2 400.04 230.48 402.16C230.56 402.68 230.84 403.4 231.28 404.28C231.32 404.32 231.36 404.44 231.4 404.56Z" fill="black"/>
<path opacity="0.16" d="M455.16 303.68C453.12 310.32 450.88 315.2 449.12 318.36C448.2 320.04 447.4 321.24 446.84 322C444.2 321.48 441.8 320.08 440.76 318C439.04 314.48 435.16 306.36 435.16 306.36C435.16 306.36 439.68 305.96 445.92 308.64C450.68 310.68 453.64 307 455.16 303.68Z" fill="black"/>
<path d="M523.8 533.64C520.68 533.88 513.24 531.08 509.16 527.6C505.12 524.16 501.88 519.6 501.8 519.48C501.88 519.64 506.68 528.84 516.84 532.6C516.84 532.6 516.44 536.96 509.68 535C502.92 533.04 498.76 525.68 496.08 523.24C493.4 520.76 490.96 521.08 489.04 525.52C487.12 529.96 487.04 531.16 488.92 532.76C490.8 534.36 489.48 535.64 486.16 535.04C482.84 534.44 479 532.36 479.56 527.84C480.04 524.08 480.72 521.28 478.96 517C478.6 516.16 478.16 515.24 477.6 514.24C474.16 508.24 471.16 499.24 461.08 480C459.48 476.92 457.84 473.6 456.24 470.08C447.64 451.44 438.92 427.2 432.56 407.44C430.88 402.24 429.36 397.44 427.96 393.08C427.2 390.68 426.48 388.4 425.8 386.28C422.16 374.84 419.76 367.2 418.84 363.12C417.36 356.6 415.56 350.32 414.12 344.4C410.84 330.92 409.36 319.44 417.64 311.88C429.52 301 451.4 306.44 453.36 330.72C455.32 354.96 458.84 389.76 460.96 404.48C463.08 419.24 464.08 433.96 469.12 451.44C474.16 468.92 484.84 497.24 494.12 504.64C498.32 507.96 500.72 510.28 502.72 512.44C505.12 515.04 506.96 517.44 510.64 521.12C517.4 527.8 523.44 529.32 526.56 530.48C529.68 531.68 526.92 533.4 523.8 533.64Z" fill="#FDC5B4"/>
<path opacity="0.16" d="M277.72 267C275.76 258.48 294.64 232.32 300.48 227.8C306.32 223.28 295.36 246.84 294.28 260.4C293.2 274 280.16 277.6 277.72 267Z" fill="white"/>
<path opacity="0.1" d="M257.36 283.96C246.52 294.56 225.92 312.96 215.44 319.96C204.96 326.96 208.28 332.56 227.72 330.56C247.16 328.6 269 293.92 270.32 281.88C271.6 269.88 264.36 277.12 257.36 283.96Z" fill="white"/>
<path opacity="0.1" d="M222.44 356.52C212.04 352.24 190.08 343.8 211.12 343.8C232.16 343.8 252.88 342.48 267.08 345.32C281.28 348.16 257.92 371.08 222.44 356.52Z" fill="white"/>
<path opacity="0.16" d="M221.88 382.24C217.36 381.2 215.32 376.52 211.76 369.8C208.2 363.12 205.12 361.8 205.68 367.84C206.24 373.88 212.16 390.28 217.4 394.48C222.64 398.64 233.2 393.68 233.4 389.6C233.6 385.52 230.56 384.2 221.88 382.24Z" fill="white"/>
<path opacity="0.16" d="M243.92 461.04C237.08 443 221.6 411.6 226.8 411C232.04 410.4 245.84 432.88 250.12 447.08C254.4 461.24 249.16 474.84 243.92 461.04Z" fill="white"/>
<path opacity="0.16" d="M266.84 495.68C267.88 479.32 274.08 462.32 272.76 434.08C271.44 405.84 270.44 361.12 301.48 356.44C332.52 351.76 313.36 395.48 305.36 414.92C297.36 434.36 298.36 456.04 289.04 478.6C279.76 501.12 265.84 511.72 266.84 495.68Z" fill="white"/>
<path opacity="0.16" d="M334.88 385.92C330.44 396.92 344.6 399.8 363.12 396.96C381.64 394.08 391.96 384 392.36 376.12C392.76 368.24 382.88 366 375.64 374.44C362.48 389.8 339.56 374.28 334.88 385.92Z" fill="white"/>
<path opacity="0.16" d="M456.28 470.12C447.68 451.48 438.96 427.24 432.6 407.48C430.92 402.28 429.4 397.48 428 393.12C427.24 390.72 426.52 388.44 425.84 386.32C422.2 374.88 419.8 367.24 418.88 363.16C417.4 356.64 415.6 350.36 414.16 344.44C418.96 360.12 435.68 413.32 444.92 424.72C452.84 434.6 452.36 451.64 456.28 470.12Z" fill="black"/>
<path opacity="0.16" d="M435.08 385.68C426.44 361.84 414.6 323.28 432.2 320.96C449.8 318.64 450.88 378.72 451.36 392.16C451.88 405.6 440.52 400.68 435.08 385.68Z" fill="white"/>
<path opacity="0.16" d="M441.92 275.64C438.8 280.6 443.92 290.2 441.48 296.24C439 302.28 448.32 309.08 451.88 298.72C455.48 288.32 447.72 266.44 441.92 275.64Z" fill="white"/>
</svg>
